<?xml version="1.0" encoding="utf-8"?>
<!-- Generator: Adobe Illustrator 24.0.2, SVG Export Plug-In . SVG Version: 6.00 Build 0)  -->
<svg version="1.1" id="Layer_1" xmlns="http://www.w3.org/2000/svg" xmlns:xlink="http://www.w3.org/1999/xlink" x="0px" y="0px"
	 viewBox="0 0 255.7 173.5" style="enable-background:new 0 0 255.7 173.5;" xml:space="preserve">
<style type="text/css">
	.st0{fill:#252122;}
	.st1{fill-rule:evenodd;clip-rule:evenodd;fill:#C4262D;}
	.st2{fill-rule:evenodd;clip-rule:evenodd;fill:#F79037;}
	.st3{fill-rule:evenodd;clip-rule:evenodd;fill:#1973BB;}
	.st4{fill:#1973BB;}
	.st5{display:none;fill:#252122;}
</style>
<g>
	<path class="st0" d="M58.9,127.8v-5.5c1.6,0,2.6,0,2.9,0.1c0.5,0,0.8,0,0.9,0.1c0,0.1,0,0.2-0.1,0.4c-0.2,0.5-0.2,0.9-0.2,1.4v3.5
		h3.1v3.3h-3.1v2.8c0.8-0.3,1.7-0.6,2.6-0.8c0,1.6,0,2.6,0.1,3.1c-0.4,0.3-1.3,0.7-2.8,1.3v8.3c0.3,2-1.5,2.9-5.4,2.7
		c-0.1-0.2-0.2-0.3-0.2-0.5c-0.2-1.1-0.5-2.1-0.9-2.9c2.3,0.2,3.3-0.2,3-1.2V139c-0.1,0-0.6,0.2-1.6,0.6c-1.1,0.5-1.6,0.7-1.6,0.6
		c-0.5-1.3-0.8-2.5-1.2-3.9c0.2,0,0.5-0.1,0.9-0.2c1.7-0.5,2.9-0.9,3.6-1.2v-3.8h-3.8v-3.3H58.9z M76.5,143.6
		c0.1-1.6,0.2-3.7,0.2-6.2c0.1-1.3,0.2-2.3,0.2-2.9h-0.8c-0.6,6.6-3.5,11.5-8.5,14.4c-0.5-0.3-1.2-0.8-1.9-1.4
		c-0.5-0.4-1-0.7-1.5-1.1c5.2-2.7,8.1-6.6,8.5-12h-1.3c-0.7,3.9-2.7,7.2-6,9.7c-1.2-1-2.2-1.8-3.1-2.5c3.2-1.4,5.1-3.8,5.5-7.2
		c-1,0.1-1.5,0-1.4-0.1c-0.2-1-0.3-2.1-0.3-3.2c2.3-0.2,4.7-1.8,7.2-4.9h-7.9v-3.2h14.5c-1.5,2.9-3.8,5.6-6.7,8.2h7.5
		c-0.2,1.9-0.3,3.8-0.5,5.6c-0.1,2.8-0.2,5.6-0.5,8.3c0.5,2.4-1.6,3.5-6.2,3.5c-0.2-0.9-0.7-2.2-1.3-3.6
		C75.3,145.4,76.7,144.9,76.5,143.6z"/>
	<path class="st0" d="M100.1,129.7c0.2-0.1,0.4-0.2,0.6-0.3c1.6-0.9,2.7-1.7,3.2-2.6H91.7v-3.5h20.1c-1.6,3.2-4.1,5.8-7.5,7.9v2.1
		h10.7v3.4h-10.6v8.7c0,1.3-0.4,2.2-1.2,2.6c-0.7,0.4-2.5,0.7-5.5,0.9c-0.2-1.6-0.5-2.8-1-3.8c2.6,0.2,3.8-0.4,3.5-1.8v-6.7H88.3
		v-3.4h11.8V129.7z"/>
	<path class="st0" d="M127.3,135.6c-1.7-1.2-3.5-2.2-5.3-3.1l2.1-3.6c2.1,1.1,3.9,2.2,5.4,3.3L127.3,135.6z M126.4,148.6
		c-0.5-0.2-1.7-1-3.8-2.5c2.1-3.6,3.5-6.8,4.3-9.6c1.4,1,2.5,1.7,3.3,2C129.6,139.7,128.4,143,126.4,148.6z M128.8,129.6
		c-1.9-2-3.4-3.4-4.5-4.5l3-2.8c1.5,1.4,3,2.9,4.3,4.5L128.8,129.6z M131.7,125.1H147v3.3h-5.7v15.4h6.9v3.2h-18.2v-3.2h7.4v-15.4
		h-5.8V125.1z"/>
	<path class="st0" d="M159.9,134.7c-1.6-1.3-3.2-2.2-4.6-2.9l2.1-3.2c1.9,1.2,3.5,2.2,4.6,3.1L159.9,134.7z M156.3,146.5
		c1.4-3.8,2.5-7.4,3.2-10.8c0.5,0.5,1.6,1,3.1,1.5c-0.6,2.3-1.2,4.6-1.7,7c-0.5,2.5-0.9,3.9-1,4.2
		C158.8,147.9,157.6,147.3,156.3,146.5z M163.2,128.8c-1.7-1.8-3.3-3.1-4.9-4l2.4-2.7c1.6,0.9,3.3,2.1,5,3.8L163.2,128.8z
		 M164.7,147.2l-0.3-0.2c-0.8-0.7-1.7-1.3-2.5-1.9c1.8-1.6,3.3-3.4,4.5-5.5c0.5,0.2,0.9,0.5,1.4,0.7c1.6,0.6,2.4,1,2.3,1.1
		C169.5,142,167.8,144,164.7,147.2z M162.3,132.6c3.8-2.5,6.4-6.1,7.7-10.9c1.2,0.1,2.8,0.3,4.7,0.6c-0.2,0.4-0.4,0.7-0.5,1.1
		c1.9,4.1,4.7,6.8,8.4,7.9c-1.1,1.2-1.9,2.5-2.4,3.9c-1-0.6-1.7-1.1-2.2-1.4c-0.2-0.2-0.4-0.3-0.5-0.5v0.6h-3.5v2.4h7.4v3.1h-7.4
		v7.2c0,1.3-0.3,2.1-0.9,2.4c-0.5,0.4-2,0.6-4.5,0.6c0.1-1.4-0.2-2.5-0.7-3.4c1.9,0.2,2.7-0.2,2.4-1.1v-5.6h-7v-3.1h7v-2.4h-3.6
		v-0.7c-0.8,0.9-1.6,1.5-2.2,2C163.8,134.1,162.9,133.3,162.3,132.6z M169.1,130.9h5.9c-1.5-1.8-2.4-3.2-2.8-4.3
		C170.9,128.4,169.8,129.9,169.1,130.9z M177.5,139.4c1.8,2.2,3.3,4.2,4.5,6c-1.4,0.8-2.4,1.5-3.1,2.2c-1.1-1.9-2.5-3.8-4.3-5.9
		L177.5,139.4z"/>
	<path class="st0" d="M193,125.1c0.7,1.2,1.3,2.4,2,3.6v-6.8h1.5c0.8,0,1.3,0,1.5,0.1c0.2,0,0.3,0,0.5,0.1c0,0.1,0,0.4-0.1,0.8v1.2
		v7.3h4.5v1.8l2.8-1.5c0.9,1.2,1.9,2.6,2.9,4.3l-3,1.8c-0.7-1.3-1.6-2.6-2.7-4v0.7h-4.5v2.3c0.6-0.3,1.3-0.6,2.1-0.9
		c0.8,0.9,1.5,1.9,2.2,2.9c2.4-0.1,4.7-0.3,7-0.6v-16.2h1.7c0.9,0,1.5,0,1.6,0.1c0.2,0,0.4,0,0.5,0.1c0,0.2,0,0.4-0.1,0.8v1.3v13.4
		c1-0.1,2-0.2,2.9-0.4l0.2,3.3c-1.1,0.1-2.1,0.2-3.1,0.2v8h-3.7v-7.5c-1.1,0.1-2.9,0.2-5.2,0.5c-0.9,0.1-1.8,0.2-2.7,0.2l-0.1-1.4
		c-0.6,0.4-1.1,0.6-1.5,0.7c-0.1-0.1-0.2-0.2-0.2-0.4c-0.6-1.1-1.1-2-1.6-2.6v10.4h-3.4v-10.1c-0.9,1.9-2,3.7-3.1,5.5
		c-0.8-0.6-1.8-1.3-3-1.9c2.1-2.3,3.7-5,4.7-8h-3.9v-3.1h5.3v-2.1l-2.8,1.3c-0.5-0.9-1.3-2.4-2.4-4.4
		C190.9,125.9,191.9,125.5,193,125.1 M198.6,129c0.7-1.5,1.1-2.6,1.3-3.3c0.2-0.4,0.3-0.6,0.4-0.7c0.1-0.1,1,0.3,2.6,1.1h0.2
		l2.7-1.8c1.9,2.5,3,4.1,3.3,4.7l-2.8,2.1c-1.2-1.7-2.2-3.1-3-4.2c-0.6,1.3-1.3,2.5-2,3.5C200.4,129.9,199.4,129.4,198.6,129z"/>
	<polygon class="st0" points="87.5,163 87.5,160.1 84.5,154.1 86.8,154.1 88.6,158.2 90.4,154.1 92.3,154.1 89.4,160.1 89.4,163 	
		"/>
	<polygon class="st0" points="94.5,163 94.5,161.5 98.8,155.6 94.8,155.6 94.8,154.1 101.1,154.1 101.1,155.6 96.8,161.5 
		101.2,161.5 101.2,163 	"/>
	<path class="st0" d="M107.3,154.1h1.9v6c-0.1,2-1,3-2.9,3c-1.9,0-2.8-0.9-2.9-2.9h1.9c0,1.1,0.3,1.6,1,1.6c0.6,0,1-0.5,1-1.6
		c0,0,0-0.1,0-0.1V154.1z"/>
	<path class="st0" d="M124.5,157h-2c-0.1-1.1-0.6-1.6-1.7-1.7c-1,0.1-1.6,1.2-1.7,3.3c0.1,2.1,0.6,3.2,1.7,3.2
		c1.1,0,1.6-0.6,1.7-1.7h2c-0.1,2-1.4,3-3.7,3c-2.4-0.1-3.6-1.6-3.6-4.5c0.1-3,1.3-4.6,3.6-4.7C123.1,154,124.3,155,124.5,157"/>
	<path class="st0" d="M131.2,163.1c-2.7-0.1-4.2-1.6-4.2-4.5c0.1-3,1.5-4.6,4.2-4.7c2.7,0.1,4.1,1.7,4.2,4.7
		C135.2,161.6,133.8,163.1,131.2,163.1 M131.2,155.3c-1.5,0-2.3,1.1-2.2,3.3c0,2.2,0.7,3.3,2.2,3.2c1.4,0,2.2-1.1,2.2-3.2
		C133.3,156.4,132.6,155.3,131.2,155.3z"/>
	<path class="st0" d="M139.5,163h-1.8l3.2-8.9h2.2l3.1,8.9h-1.9l-0.7-1.9h-3.4L139.5,163z M140.6,159.7h2.5l-1.2-3.8h0L140.6,159.7z
		"/>
	<polygon class="st0" points="148.1,155.6 148.1,154.1 155.2,154.1 155.2,155.6 152.6,155.6 152.6,163 150.7,163 150.7,155.6 	"/>
	<rect x="157.8" y="154.1" class="st0" width="1.9" height="8.9"/>
	<polygon class="st0" points="170.8,163 168.1,163 164.7,155.6 164.6,155.7 164.6,163 162.9,163 162.9,154.1 165.7,154.1 169,161.2 
		169,161.1 169,154.1 170.8,154.1 	"/>
	<path class="st0" d="M179.9,159.8h-1.7v-1.5h3.5v4.5c-0.6,0.2-1.3,0.3-1.9,0.3c-0.5,0.1-1.2,0.1-2,0.1c-2.7-0.1-4-1.6-4.1-4.5
		c0.1-2.9,1.4-4.4,4.1-4.7c2.7,0,4.1,1,4.1,2.9h-2c0-1-0.6-1.5-1.8-1.5c-1.6,0.1-2.5,1.1-2.5,3.3c0,2.1,0.8,3.2,2.5,3.2
		c0.5,0,1,0,1.7-0.1c0,0,0.1,0,0.1,0V159.8z"/>
	<path class="st1" d="M100.4,41C164.9,3,294,60.7,221.6,168.9C314.4,62.5,171.8-22.2,88,32.4L100.4,41z"/>
	<path class="st2" d="M74.4,23.2l7.4,4.6c0,0,45.3-34.7,103.7-15C173.2,5.5,119.7-13.4,74.4,23.2"/>
	<path class="st3" d="M95.4,96.7l-13.9,19.5c-38.8-20.1-40.7,31.3-50.2,45.1c-16.4,23.9-41.8,5.9-24.8-17.5
		c8.9-12.2,59.6-30.8,26.7-61.6L47,62.5l24.2,17.1L95.4,96.7z M18.8,152.7c-2.3-1.6-5.4-1.1-7,1.2c-1.6,2.3-1,5.4,1.2,7
		c2.3,1.6,5.4,1.1,7-1.2C21.6,157.4,21.1,154.3,18.8,152.7z"/>
	
		<rect x="66.4" y="30.3" transform="matrix(0.5766 -0.817 0.817 0.5766 -13.0694 94.7064)" class="st3" width="36.9" height="59.3"/>
	<path class="st4" d="M110.2,45.6l13.9,10.6c0.6-0.3,1.3-0.5,1.9-0.8c0.9,2.9,1.2,4.3,0.1,10.1c-1.7,9.5,4.1,11.2,3.9,2.2
		c-0.3-10,6.5-1.6,6.5,11.1c0,4.1-5.1,20.9,0.9,21.4c6,0.5,1.7-18,1.8-20.5c0.5-8.4,3.3-4.7,4.2-1.5c0.4,1.3,1.5,3.9,0.5,9.7
		c-1.4,8.6,4.3,9.2,3,0c-0.5-3.4-0.2-8.3,0.6-11.2c2.9-10.2,9.6-2.6,6,11.3c-1.6,6.4-1.8,10.3,1.3,9.8c3.1-0.6,0.7-5.6,1.7-8.5
		c4.6-12.5,7.2-2.2,6.5,9.5c-0.5,8.7-3.8,15.5,1.4,15.9c5.2,0.4,0.7-8.2,0.4-15.4c-1-26.9,2.7-25.2,3.6-20c1.2,6.5,0.8,10,5.1,9.4
		c4.3-0.6,0.2-9.9,0-13.5c-0.6-11.2,7.5-13.7,6.9-7.9c-0.4,3.3-1.9,8.6,1,8c3.7-0.7,1.1-4.5,1-9c-0.1-5.6,1.1-6.9,2.3-11.9
		c30.3,11.8,51.1,42.8,41.7,83.1C257.5,76.3,183.3,14.8,110.2,45.6"/>
	<path class="st4" d="M145.7,97.4c-0.9,0-1.6,1.4-1.6,3.1c0,1.7,0.7,3.1,1.6,3.1c0.9,0,1.6-1.4,1.6-3.1
		C147.3,98.8,146.6,97.4,145.7,97.4"/>
	<path class="st4" d="M173.4,90.6c-1.2,0-2.2,1.3-2.2,3c0,1.6,1,3,2.2,3c1.2,0,2.2-1.3,2.2-3C175.7,92,174.7,90.6,173.4,90.6"/>
	<rect x="185.6" y="158.8" class="st0" width="27.5" height="0.9"/>
	<rect x="55.3" y="158.8" class="st0" width="27.5" height="0.9"/>
</g>
<path class="st5" d="M58.9,378.8v-5.5c1.6,0,2.6,0,2.9,0.1c0.5,0,0.8,0,0.9,0.1c0,0.1,0,0.2-0.1,0.4c-0.2,0.5-0.2,0.9-0.2,1.4v3.5
	h3.1v3.3h-3.1v2.8c0.8-0.3,1.7-0.6,2.6-0.8c0,1.6,0,2.6,0.1,3.1c-0.4,0.3-1.3,0.7-2.8,1.3v8.3c0.3,2-1.5,2.9-5.4,2.7
	c-0.1-0.2-0.2-0.3-0.2-0.5c-0.2-1.1-0.5-2.1-0.9-2.9c2.3,0.2,3.3-0.2,3-1.2V390c-0.1,0-0.6,0.2-1.6,0.6c-1.1,0.5-1.6,0.7-1.6,0.6
	c-0.5-1.3-0.8-2.5-1.2-3.9c0.2,0,0.5-0.1,0.9-0.2c1.7-0.5,2.9-0.9,3.6-1.2v-3.8h-3.8v-3.3H58.9z M76.5,394.6
	c0.1-1.6,0.2-3.7,0.2-6.2c0.1-1.3,0.2-2.3,0.2-2.9h-0.8c-0.6,6.6-3.5,11.5-8.5,14.4c-0.5-0.3-1.2-0.8-1.9-1.4
	c-0.5-0.4-1-0.7-1.5-1.1c5.2-2.7,8.1-6.6,8.5-12h-1.3c-0.7,3.9-2.7,7.2-6,9.7c-1.2-1-2.2-1.8-3.1-2.5c3.2-1.4,5.1-3.8,5.5-7.2
	c-1,0.1-1.5,0-1.4-0.1c-0.2-1-0.3-2.1-0.3-3.2c2.3-0.2,4.7-1.8,7.2-4.9h-7.9v-3.2h14.5c-1.5,2.9-3.8,5.6-6.7,8.2h7.5
	c-0.2,1.9-0.3,3.8-0.5,5.6c-0.1,2.8-0.2,5.6-0.5,8.3c0.5,2.4-1.6,3.5-6.2,3.5c-0.2-0.9-0.7-2.2-1.3-3.6
	C75.3,396.4,76.7,395.9,76.5,394.6z"/>
<path class="st5" d="M100.1,380.7c0.2-0.1,0.4-0.2,0.6-0.3c1.6-0.9,2.7-1.7,3.2-2.6H91.7v-3.5h20.1c-1.6,3.2-4.1,5.8-7.5,7.9v2.1
	h10.7v3.4h-10.6v8.7c0,1.3-0.4,2.2-1.2,2.6c-0.7,0.4-2.5,0.7-5.5,0.9c-0.2-1.6-0.5-2.8-1-3.8c2.6,0.2,3.8-0.4,3.5-1.8v-6.7H88.3
	v-3.4h11.8V380.7z"/>
<path class="st5" d="M127.3,386.6c-1.7-1.2-3.5-2.2-5.3-3.1l2.1-3.6c2.1,1.1,3.9,2.2,5.4,3.3L127.3,386.6z M126.4,399.6
	c-0.5-0.2-1.7-1-3.8-2.5c2.1-3.6,3.5-6.8,4.3-9.6c1.4,1,2.5,1.7,3.3,2C129.6,390.7,128.4,394.1,126.4,399.6z M128.8,380.6
	c-1.9-2-3.4-3.4-4.5-4.5l3-2.8c1.5,1.4,3,2.9,4.3,4.5L128.8,380.6z M131.7,376.1H147v3.3h-5.7v15.4h6.9v3.2h-18.2v-3.2h7.4v-15.4
	h-5.8V376.1z"/>
<path class="st5" d="M159.9,385.8c-1.6-1.3-3.2-2.2-4.6-2.9l2.1-3.2c1.9,1.2,3.5,2.2,4.6,3.1L159.9,385.8z M156.3,397.5
	c1.4-3.8,2.5-7.4,3.2-10.8c0.5,0.5,1.6,1,3.1,1.5c-0.6,2.3-1.2,4.6-1.7,7c-0.5,2.5-0.9,3.9-1,4.2C158.8,399,157.6,398.3,156.3,397.5
	z M163.2,379.8c-1.7-1.8-3.3-3.1-4.9-4l2.4-2.7c1.6,0.9,3.3,2.1,5,3.8L163.2,379.8z M164.7,398.2l-0.3-0.2c-0.8-0.7-1.7-1.3-2.5-1.9
	c1.8-1.6,3.3-3.4,4.5-5.5c0.5,0.2,0.9,0.5,1.4,0.7c1.6,0.6,2.4,1,2.3,1.1C169.5,393,167.8,395,164.7,398.2z M162.3,383.7
	c3.8-2.5,6.4-6.1,7.7-10.9c1.2,0.1,2.8,0.3,4.7,0.6c-0.2,0.4-0.4,0.7-0.5,1.1c1.9,4.1,4.7,6.8,8.4,7.9c-1.1,1.2-1.9,2.5-2.4,3.9
	c-1-0.6-1.7-1.1-2.2-1.4c-0.2-0.2-0.4-0.3-0.5-0.5v0.6h-3.5v2.4h7.4v3.1h-7.4v7.2c0,1.3-0.3,2.1-0.9,2.4c-0.5,0.4-2,0.6-4.5,0.6
	c0.1-1.4-0.2-2.5-0.7-3.4c1.9,0.2,2.7-0.2,2.4-1.1v-5.6h-7v-3.1h7v-2.4h-3.6v-0.7c-0.8,0.9-1.6,1.5-2.2,2
	C163.8,385.1,162.9,384.3,162.3,383.7z M169.1,381.9h5.9c-1.5-1.8-2.4-3.2-2.8-4.3C170.9,379.4,169.8,380.9,169.1,381.9z
	 M177.5,390.5c1.8,2.2,3.3,4.2,4.5,6c-1.4,0.8-2.4,1.5-3.1,2.2c-1.1-1.9-2.5-3.8-4.3-5.9L177.5,390.5z"/>
<path class="st5" d="M193,376.1c0.7,1.2,1.3,2.4,2,3.6V373h1.5c0.8,0,1.3,0,1.5,0.1c0.2,0,0.3,0,0.5,0.1c0,0.1,0,0.4-0.1,0.8v1.2
	v7.3h4.5v1.8l2.8-1.5c0.9,1.2,1.9,2.6,2.9,4.3l-3,1.8c-0.7-1.3-1.6-2.6-2.7-4v0.7h-4.5v2.3c0.6-0.3,1.3-0.6,2.1-0.9
	c0.8,0.9,1.5,1.9,2.2,2.9c2.4-0.1,4.7-0.3,7-0.6v-16.2h1.7c0.9,0,1.5,0,1.6,0.1c0.2,0,0.4,0,0.5,0.1c0,0.2,0,0.4-0.1,0.8v1.3v13.4
	c1-0.1,2-0.2,2.9-0.4l0.2,3.3c-1.1,0.1-2.1,0.2-3.1,0.2v8h-3.7v-7.5c-1.1,0.1-2.9,0.2-5.2,0.5c-0.9,0.1-1.8,0.2-2.7,0.2l-0.1-1.4
	c-0.6,0.4-1.1,0.6-1.5,0.7c-0.1-0.1-0.2-0.2-0.2-0.4c-0.6-1.1-1.1-2-1.6-2.6V400h-3.4v-10.1c-0.9,1.9-2,3.7-3.1,5.5
	c-0.8-0.6-1.8-1.3-3-1.9c2.1-2.3,3.7-5,4.7-8h-3.9v-3.1h5.3v-2.1l-2.8,1.3c-0.5-0.9-1.3-2.4-2.4-4.4
	C190.9,376.9,191.9,376.5,193,376.1 M198.6,380c0.7-1.5,1.1-2.6,1.3-3.3c0.2-0.4,0.3-0.6,0.4-0.7c0.1-0.1,1,0.3,2.6,1.1h0.2l2.7-1.8
	c1.9,2.5,3,4.1,3.3,4.7l-2.8,2.1c-1.2-1.7-2.2-3.1-3-4.2c-0.6,1.3-1.3,2.5-2,3.5C200.4,380.9,199.4,380.4,198.6,380z"/>
<polygon class="st5" points="87.5,414.1 87.5,411.2 84.5,405.1 86.8,405.1 88.6,409.2 90.4,405.1 92.3,405.1 89.4,411.2 89.4,414.1 
	"/>
<polygon class="st5" points="94.5,414.1 94.5,412.6 98.8,406.6 94.8,406.6 94.8,405.1 101.1,405.1 101.1,406.6 96.8,412.6 
	101.2,412.6 101.2,414.1 "/>
<path class="st5" d="M107.3,405.1h1.9v6c-0.1,2-1,3-2.9,3c-1.9,0-2.8-0.9-2.9-2.9h1.9c0,1.1,0.3,1.6,1,1.6c0.6,0,1-0.5,1-1.6
	c0,0,0-0.1,0-0.1V405.1z"/>
<path class="st5" d="M124.5,408h-2c-0.1-1.1-0.6-1.6-1.7-1.7c-1,0.1-1.6,1.2-1.7,3.3c0.1,2.1,0.6,3.2,1.7,3.2c1.1,0,1.6-0.6,1.7-1.7
	h2c-0.1,2-1.4,3-3.7,3c-2.4-0.1-3.6-1.6-3.6-4.5c0.1-3,1.3-4.6,3.6-4.7C123.1,405,124.3,406,124.5,408"/>
<path class="st5" d="M131.2,414.1c-2.7-0.1-4.2-1.6-4.2-4.5c0.1-3,1.5-4.6,4.2-4.7c2.7,0.1,4.1,1.7,4.2,4.7
	C135.2,412.6,133.8,414.1,131.2,414.1 M131.2,406.3c-1.5,0-2.3,1.1-2.2,3.3c0,2.2,0.7,3.3,2.2,3.2c1.4,0,2.2-1.1,2.2-3.2
	C133.3,407.4,132.6,406.3,131.2,406.3z"/>
<path class="st5" d="M139.5,414.1h-1.8l3.2-8.9h2.2l3.1,8.9h-1.9l-0.7-1.9h-3.4L139.5,414.1z M140.6,410.7h2.5l-1.2-3.8h0
	L140.6,410.7z"/>
<polygon class="st5" points="148.1,406.6 148.1,405.1 155.2,405.1 155.2,406.6 152.6,406.6 152.6,414.1 150.7,414.1 150.7,406.6 "/>
<rect x="157.8" y="405.1" class="st5" width="1.9" height="8.9"/>
<polygon class="st5" points="170.8,414.1 168.1,414.1 164.7,406.6 164.6,406.7 164.6,414.1 162.9,414.1 162.9,405.1 165.7,405.1 
	169,412.2 169,412.1 169,405.1 170.8,405.1 "/>
<path class="st5" d="M179.9,410.8h-1.7v-1.5h3.5v4.5c-0.6,0.2-1.3,0.3-1.9,0.3c-0.5,0.1-1.2,0.1-2,0.1c-2.7-0.1-4-1.6-4.1-4.5
	c0.1-2.9,1.4-4.4,4.1-4.7c2.7,0,4.1,1,4.1,2.9h-2c0-1-0.6-1.5-1.8-1.5c-1.6,0.1-2.5,1.1-2.5,3.3c0,2.1,0.8,3.2,2.5,3.2
	c0.5,0,1,0,1.7-0.1c0,0,0.1,0,0.1,0V410.8z"/>
<rect x="185.6" y="409.8" class="st5" width="27.5" height="0.9"/>
<rect x="55.3" y="409.8" class="st5" width="27.5" height="0.9"/>
<g>
</g>
<g>
</g>
<g>
</g>
<g>
</g>
<g>
</g>
<g>
</g>
</svg>
