<svg xmlns="http://www.w3.org/2000/svg" viewBox="0 0 698.83 369.23"><title>Asset 1</title><g style="isolation:isolate"><g id="Layer_2" data-name="Layer 2"><g id="object"><path d="M557.18,113.11a11.31,11.31,0,0,1,2.8,1.12,2.71,2.71,0,0,1,1.34,1c2.14-1.56,4.19-3,6.23-4.68,1.17-.85,2.24-1.68,3.41-2.52a60.26,60.26,0,0,0-7.47,1.74c-1.06.48-2.32.95-3.49,1.55a25,25,0,0,1-2.82,1.8ZM95.26,10.72c55,66.41,288.87,87.69,424.06,20.33l5.54-3.59a24.07,24.07,0,0,1,4.27-2.15c.78-.35,1.85-.71,2.43-.34s.37,1.22,0,2.19l-.2.24c-.19.25-.39.37-.49.61-.58.48-1.16,1-1.65,1.44-2.14,1.8-4.09,3.49-6.14,5.17-1.75,1.44-3.41,2.89-5.16,4.33,6.52-4.68,12.94-9.36,19.56-13.92,7.49-5.27,14.79-11.28,22.38-16.44,2-1.32,4-2.63,5.92-3.71,1.66-.83,3.21-1.67,4.76-2.26a3.88,3.88,0,0,1,2.81-.34c.58.25.38,1.22.08,2.07a.64.64,0,0,0-.19.36,3.47,3.47,0,0,0-.59.48,12,12,0,0,1-1.85,1.57c-2.14,1.8-4.28,3.36-6.42,5.17-6.24,5.16-12.66,10.21-18.8,15.38-6.42,5.29-12.75,10.45-19.27,15.86a1.39,1.39,0,0,1,.48-.24c.58-.23,1.17-.59,1.75-.83,12-9.25,23.85-18.62,36-26.52,4.37-2.63,8.27-5.88,12.55-8.88a9.79,9.79,0,0,1,2-1.32,5.33,5.33,0,0,1,1.75-.59,3,3,0,0,1,1.35.38c.38.49.76,1,1.15,1.48a3.71,3.71,0,0,1-.2.85,2.88,2.88,0,0,1-.59,1,29.05,29.05,0,0,1-2.92,2.65,87.38,87.38,0,0,1-8.27,6.24c-1,.72-2.14,1.44-3.21,2.16a.57.57,0,0,1,.09.37c.19.12.29.24.29.37.19,0,.19-.12.29-.12a15.87,15.87,0,0,1,2.33-1.08c.19,0,.39-.11.68-.11,0,.12.19,0,.29.12s0,.49-.3.73-.59.85-.78,1.21c-1.95,2.17-4.1,4.1-6,5.9a5,5,0,0,0-1.36,1.21c-1.76,1.93-3.51,3.85-5.37,5.78-3.32,3.49-6.63,7.11-10,10.73,6-5,11.4-10.84,17.82-15,1.94-1.2,3.11-2.77,5-4.33a6.15,6.15,0,0,1,.78-.72,1.48,1.48,0,0,1,.78.13,1,1,0,0,1,.57.73,6.41,6.41,0,0,1,.86,1.72,1.44,1.44,0,0,1,.09.73,2.21,2.21,0,0,1-.3.72,3.83,3.83,0,0,1-.88,1.58,17.77,17.77,0,0,1-3.12,3.25c-.68.73-1.66,1.32-2.24,2.05a.11.11,0,0,1-.1.12s.1.12,0,.12h.19c.49-.12.88-.36,1.46-.47.39-.12.68-.36,1-.24,0-.12.09,0,.29,0,0,.12.09.12.09.24h0c5.25-3.11,10.4-6.22,15.46-9.69,1.65-1,3.3-2.16,5.06-3.24.19-.12.19-.24.29-.36a10.16,10.16,0,0,1,1.46-1,3.23,3.23,0,0,1,1.26-.71,6.78,6.78,0,0,1,1.55-.35,5.41,5.41,0,0,1,1.94-.11,51.83,51.83,0,0,1,6.19.19,18.79,18.79,0,0,0,6.87-.17,40.75,40.75,0,0,0,6.11-2,54.36,54.36,0,0,1,6.3-1.88,19.73,19.73,0,0,1,7.06-.17c3.1.4,6,1.16,9.18,1.31a18.31,18.31,0,0,1,7.24,2.39,39.17,39.17,0,0,1,7.22,5.06,12.94,12.94,0,0,1,2.3,2.58,3.84,3.84,0,0,1,.76,2.32,2.2,2.2,0,0,1-1.18,1.69,11.88,11.88,0,0,1-3.78.7,6.12,6.12,0,0,1-2.51-.4c-1.16-.25-2.32-.63-3.57-.88A58.89,58.89,0,0,0,639.3,29c0-.12-.2,0-.3,0h-.09c-.1,0-.2.11-.2.11l-.09.12a1.88,1.88,0,0,0-.11.73,21.39,21.39,0,0,1,.47,2.44,3,3,0,0,1-.11,1c-.1.25-.19.25-.39.37,0,.12-.29.24-.39.24a1.76,1.76,0,0,1-.87.11,2,2,0,0,1-1-.25,22.63,22.63,0,0,1-3.28-1c-3.76-1.5-8.21-1.67-12.28-1.59a110.49,110.49,0,0,0-17.92,2.62,122.15,122.15,0,0,0-17.46,6.26c-.68.24-1.26.6-1.84.84a5.54,5.54,0,0,0,1.35.13,3.18,3.18,0,0,0,1.55.26,26.48,26.48,0,0,1,5.14-1.77h0a.92.92,0,0,0,.58-.48c1.17-.72,2.43-1.44,3.6-2a8.39,8.39,0,0,1,4-1.06,25.1,25.1,0,0,0,5.22.18,6.48,6.48,0,0,1,3.29.76,10.66,10.66,0,0,0,1.94-1.2c.59-.23,1-.47,1.56-.71a8.88,8.88,0,0,1,1.94-.46,31.7,31.7,0,0,1,4.83-.2,69.89,69.89,0,0,1,12.18,1.71,121.54,121.54,0,0,0,13.53,2.21,57.32,57.32,0,0,0,6.28.55,22.93,22.93,0,0,0,5.81-.43,5.57,5.57,0,0,1,1.45-.1,7.18,7.18,0,0,1,1.64.26A13.48,13.48,0,0,1,663,40a39.3,39.3,0,0,1,6.83,4.46c.77.86,1.44,1.59,2.11,2.45a4.12,4.12,0,0,1,.48.86c.09.24.19.49.09.61s-.1.12-.2.24-.09.12-.19.12h-.48c-.1,0-.39-.12-.58-.12a28.63,28.63,0,0,1-3.86-1.38,31,31,0,0,0-6.66-2.14,2.76,2.76,0,0,0-1-.13A5.15,5.15,0,0,1,659,45a2,2,0,0,0-.78.59c-.79,1.82-.22,3.78-1.4,5.71a2.84,2.84,0,0,0-.68,1.21.5.5,0,0,0-.1.36s.09,0,.09.13h.1v.12h.87c.39-.12.87-.24,1.36-.35a26,26,0,0,1,4.55-.44,16,16,0,0,1,6.08,1.28,18.77,18.77,0,0,1,7,4.94,37.91,37.91,0,0,1,3.73,5.27,19.92,19.92,0,0,0,3.73,4.66,10.66,10.66,0,0,0,3,2A24.91,24.91,0,0,0,691,72a.68.68,0,0,0,.48.25,2.29,2.29,0,0,0,.48.37,2.22,2.22,0,0,1,.86.86,8,8,0,0,1,1.44,2.33,5,5,0,0,1,.37,2.07.81.81,0,0,1-.2.6c-.1,0-.2.12-.29.12h-.39a9.88,9.88,0,0,0-1-.38c-.48-.25-1-.49-1.34-.74A49.28,49.28,0,0,1,686.82,75c-4.24-2.24-8.48-4.47-12.72-6.46-4.24-1.63-8.39-3.13-12.73-4.52-1.35-.37-2.9-.75-4.15-1.13a4,4,0,0,1-1.26-.26c-.19,0-.29,0-.39.12h-.19a8,8,0,0,1-1.28,2.66h0v.12h.1a1.14,1.14,0,0,1,.58.13,12.11,12.11,0,0,1,2.9.39,43.48,43.48,0,0,1,15.8,7.35A19.51,19.51,0,0,1,679.15,79a8.74,8.74,0,0,1,1,2.69,4.21,4.21,0,0,1-.5,2.19,2.67,2.67,0,0,1-1,.59,4.74,4.74,0,0,1-1.45.23,18,18,0,0,1-4.35-.53,118.07,118.07,0,0,1-12.55-3.66,106.29,106.29,0,0,0-13.91-3.18c-1.54-.26-3.18-.52-4.73-.66a6.7,6.7,0,0,1,1,1.47,5.55,5.55,0,0,1,.66,1.83v.73l-.2.24s0,.13-.19.12-.39.12-.58.12h-1.16l-3.1-.4c-2.9-.52-5.7-.91-8.5-1.18s-5.61-.43-8.41-.58a19.08,19.08,0,0,0-2.62,0,1.59,1.59,0,0,0-.77.11c-.1,0-.19.12-.19.12h0v.12a14.51,14.51,0,0,1-.7,3h.49a9.76,9.76,0,0,1,1.74-.35A19.93,19.93,0,0,1,630,84.53,13,13,0,0,1,634.19,88a4.31,4.31,0,0,1,.95,2.2,4.11,4.11,0,0,1,.08,2.44,1.31,1.31,0,0,1-.49,1,4.1,4.1,0,0,1-1,1,6.73,6.73,0,0,1-2.81.94,40.06,40.06,0,0,1-8.52.28c-3.19,0-6.28-.31-9.38-.22a17.65,17.65,0,0,0-6.49,1c-8.74,4-17.15,2.86-25.89,8a27.14,27.14,0,0,1-4.37,2c-4.57,3.24-9.15,6.6-13.72,9.84.1.12.1.36.19.49a3.37,3.37,0,0,1,0,1.94,6.2,6.2,0,0,1-1.18,2.3,9,9,0,0,1-1.36.84,12,12,0,0,1-1.65.59c-1.17.36-2.23.59-3.4.94H555v.12l-.1.12s-.09.12,0,.12a1.55,1.55,0,0,0,.19.74,8.43,8.43,0,0,0,1,1.83,2.61,2.61,0,0,1,.19.85,3.1,3.1,0,0,1-.1.49.66.66,0,0,1-.2.36c0,.12-.19.25-.39.24a.72.72,0,0,1-.58.24,7.59,7.59,0,0,1-1.65.11c-1.93-.15-4.36.92-6.49,1.88a80.59,80.59,0,0,0-16.93,11.5,27.07,27.07,0,0,0-3.11,3.13,18.46,18.46,0,0,0-2,2.91c0,.12-.2.24-.2.36-.19,0-.29.24-.39.24a10.31,10.31,0,0,0-1.07,1,26.67,26.67,0,0,0-2.33,1.68,6.18,6.18,0,0,0-.88.72c0,.12-.2.24-.29.36v.37h0c.2,0,.29.12.39,0a3.94,3.94,0,0,0,1.65-.1c3.68-.81,7.47-3.21,11.17-6a31.06,31.06,0,0,0,5.65-5.05,27.81,27.81,0,0,0,4-5.32,1.26,1.26,0,0,1,.58-.85,6.17,6.17,0,0,1,.88-.84,10.63,10.63,0,0,1,2.43-.95,66.11,66.11,0,0,1,6.49-1.51,32.18,32.18,0,0,0,7.08-2.36,11,11,0,0,0,3-2.16,9.51,9.51,0,0,0,2.45-3L566,124c.29-.24.67-.36.77-.48a4.41,4.41,0,0,1,2-.59,13.4,13.4,0,0,1,4.35.41,7,7,0,0,1,1.64.63,1.26,1.26,0,0,0,.58.49c0,.12.19.25.18.49s0,.12.1.24l-.2.25a.44.44,0,0,0-.09.24c-.2.12-.2.24-.3.24a4.91,4.91,0,0,1-2.13,1,10.47,10.47,0,0,0-3.59,1.54c-.2,0-.3.12-.49.36a1.77,1.77,0,0,1-.2.37,2.81,2.81,0,0,0-.1.85c.28,1.95,1,3.3,1,5.49,0,.48,0,1,0,1.33.1.13.1.25.19.37h0c0,.12.1,0,.1,0H570a.72.72,0,0,0,.2-.37c.29-.24.49-.6.78-.84a11.31,11.31,0,0,1,1.86-2.66,8.61,8.61,0,0,1,3.11-2.16,8.17,8.17,0,0,1,4.84.05,11.9,11.9,0,0,1,3.56,2,7.06,7.06,0,0,0,3.48,1.25,4.07,4.07,0,0,0,1.94-.59,13.32,13.32,0,0,0,2.53-1.8c0-.12.19-.12.19-.24a.62.62,0,0,1,.39-.12c.29-.12.48,0,.87,0a2.71,2.71,0,0,1,1.54.74,3.81,3.81,0,0,1,1.06,1.23,2.4,2.4,0,0,0,.18.61c-.09.12-.09.12-.09.25a.41.41,0,0,0-.1.24,2.08,2.08,0,0,1-.59.48c-.29.12-.68.36-1,.47a17.17,17.17,0,0,1-3,1.44c-1.16.59-2.33,1.07-3.49,1.54l4.45-.32c.39,0,1.26,0,1.45.38.1,0,0,.12-.1.25a.39.39,0,0,1-.29.11c-.19.12-.29.24-.49.24a.91.91,0,0,1-.58.24,6.5,6.5,0,0,0-.78.36c-.87.23-1.64.46-2.32.58-2.33.71-4.75,1.17-7.17,1.75-3.4.94-6.6,2-9.9,3.18v.13s-.09.12-.19.12l-.1.12h.1a10.23,10.23,0,0,1-.12,2.92v.12h0c.1-.12.1-.12.1,0h0a1,1,0,0,0,.39-.36c.49-.36,1-.72,1.56-1.08a24.41,24.41,0,0,1,10.66-2.69,8.4,8.4,0,0,1,4.73,1,3.23,3.23,0,0,1,1.54,1.24,4.44,4.44,0,0,1,.66,2.07,5.31,5.31,0,0,1-.3,1.22c-.29.36-.39.84-.88,1.21a12.12,12.12,0,0,1-2.53,2.16,42.39,42.39,0,0,1-8.35,4.29c-3,1.44-6.12,2.74-9.13,4.17a29.71,29.71,0,0,0-6.31,3.46c-8.09,6.86-16.32,8.6-24.31,15.45a32.9,32.9,0,0,1-5.94,4.2c-1.65,1-3.2,1.91-4.66,2.87-5.35,3-10.59,5.73-15.93,8.36-15.35,7.62-30.68,14.28-45.92,20.57-4.95,1.78-18.71,17.34-38.05,15.68-26.1-2.1-22.59-5.47-19.88,43.6a191,191,0,0,0,3.48,25.6c1.57,8.17-.22,27.86-6.41,27.55-3.39-.15-5.1-3.09-3.66-26.81.55-8.75,1.3-17.75,2-26.26.42-4.75.75-9.24,1.07-13.5,1.42-19.95,4.54-22.83-10.69-18.49-6,1.77-10.84,1.23-12.13,5.11a27.83,27.83,0,0,0-.36,8.76c1.64,12.79-4,18.21-3.41,3.86a31.48,31.48,0,0,1,1.31-7.05c2.88-9.83,3.24-6.41-6.82-7.13-10.82-.6-21.58,1.36-20.92,16.21.42,7.55,2.79,14.4,1.85,23.27-1,9.6-4.1,16.51-4.85,1.29-.16-3.53,1.47-14.22,2.12-23.83,1.1-16.79-1.06-12.18-12.39-11.2-15,1.3-11.73,3.16-12.47,23.47-.76,23.12.31,46.62-2.37,68-1.75,13.61-1.81,20.79-9.66,23.76-6,2.24-6.59-10.91-.37-28.24,4.36-12.25,20.11-84.5,6.29-86.1-11.89-1.46-14-13.29-14.87,8.61-.25,6.93.41,22.15-1.39,28.83-.79,2.91-2,4.36-2.93,4.35-3,0-2.85-7-1.15-14.38,1.41-6.19,4.16-12.61,4.3-17.24.24-18.61-2.48-17.67-8.4-14.68-4.76,2.38-10.54-.85-16.73-1.15-7-.44-10.22-4.85-8.17,5.39,6.39,24-16.3,18.82-10.84,1.23,3.48-12.26,14.59-10.2-1.44-14.26-10.62-2.66-22.3-5.7-27.49,2.52-5.78,9.31-.94,45.5-1.43,58.4-.61,16.91,2.76,30.82-5.45,29.15-6.66-1.53-4.34-13.67-.54-29.46,3.7-15.05,2.81-37.94,3.41-53.39.39-12.53-13-17.29-21-16.52-7.16.53-8-20.77-32.12-12a22.44,22.44,0,0,0-2.91,1.43c-.1,0-.19.12-.29.24a4.83,4.83,0,0,0-.78.48,1.48,1.48,0,0,1-.78.11,3.47,3.47,0,0,1-1.06-.25,13.38,13.38,0,0,1-1.25-.74,33.4,33.4,0,0,1-3.94-3.09,10.92,10.92,0,0,0-4.53-2.11,12.12,12.12,0,0,0-3.68.33,36.94,36.94,0,0,1-3.68.69,9.06,9.06,0,0,1-4.45-1,32.14,32.14,0,0,0-5.68-2.86,13,13,0,0,1-4.81-3.46,38.53,38.53,0,0,1-5.18-6,18.6,18.6,0,0,1-1.81-3.3,11.58,11.58,0,0,1-1-2.93,4.18,4.18,0,0,1,.31-2.31,3.11,3.11,0,0,1,2-1.2,3.26,3.26,0,0,1,1.74.39,19,19,0,0,1,2.21,1.11c1.45.87,2.79,1.74,4.34,2.61h.09c.1.12.1.12.1,0h.1c.09,0,.09-.12.09-.12a2.18,2.18,0,0,0-.08-1.1c-.29-1-.57-2-.85-3.05a4.78,4.78,0,0,1,0-1.22c0-.24,0-.36.1-.48s.19-.12.29-.24h.39a7.05,7.05,0,0,1,.77.37,13.05,13.05,0,0,1,2.21,1.85,25.54,25.54,0,0,0,8.28,4.59A115.37,115.37,0,0,0,162.94,202a61.14,61.14,0,0,0,11.31,1.21,22.59,22.59,0,0,0,4.26-.57,6.05,6.05,0,0,0,2.91-1.31c.1,0,.29-.11.39-.11h.48l1.36,0,3.28.39,1.16,0c.2,0,.29,0,.39-.12v-.24h0c-5-1-10-2.3-15.16-3.57-3.38-1-6.85-1.89-10.33-2.91a11.37,11.37,0,0,0-5.24,1.9,1.14,1.14,0,0,1-.87.35,4.17,4.17,0,0,1-1.26-.13,18.35,18.35,0,0,1-3.28-1.25c-2.69-1.61-5.48-3.59-8.28-5.2a74.48,74.48,0,0,0-6.54-3.84c-1.74-.63-3.57-1.25-5.5-2H131a6,6,0,0,0-3.58.81c-.1.24-.39.36-.78.24a3.6,3.6,0,0,1-1.06-.14,11,11,0,0,1-2.41-1.6,23,23,0,0,1-4.51-4.31q-31.24-12.73-62.28-28c-7.51-3.72-15-6.72-22.65-10.7a50.2,50.2,0,0,1-6-3.59,50.78,50.78,0,0,1-4.71-3.7,13,13,0,0,1-2.78-3.56,3.83,3.83,0,0,1,0-3.28H21a5,5,0,0,1,1.93.5c2.13.63,4.35,1.51,6.47,2.26,6.36,2.26,12.83,4.63,19.19,7.13,9,3.14,18,6.4,26.92,9.29-15.32-7-30.47-12.48-46-21.78-4.34-2.71-8.39-4-12.63-6.09a9.56,9.56,0,0,1-2.12-1.24A9.08,9.08,0,0,1,13,115a8.83,8.83,0,0,1-1.05-2.45A18.77,18.77,0,0,1,11,109a2.59,2.59,0,0,1,.2-1,.67.67,0,0,1,.68-.36,5.12,5.12,0,0,1,2.9.52A68.49,68.49,0,0,1,23.17,112c2.12,1,4,2.23,6.07,3h.29v-.12h0l-.09-.13c-.1,0-.2-.12-.29-.25-1.15-1-2.21-1.72-3.27-2.58-.77-.62-1.54-1.24-2.21-1.85a4.48,4.48,0,0,1-.67-.74,2.92,2.92,0,0,1-.29-.61.79.79,0,0,1,.2-.73c.39-.12.78-.11,1.07-.23a20.38,20.38,0,0,1,6.47,1c6.28,1.52,12.65,3.54,19.11,5.79a2.83,2.83,0,0,0-.57-.61,6.27,6.27,0,0,0-3-2.71,2.82,2.82,0,0,0-2.42.1c-.78,0-1.46.35-2.33.34a4.6,4.6,0,0,1-3-1.61,26.14,26.14,0,0,0-3.94-3.7,14.14,14.14,0,0,1-3.16-4.29,42,42,0,0,1-3.52-7.46,21.56,21.56,0,0,1-1.32-4,14.51,14.51,0,0,1-.75-3.41,5.73,5.73,0,0,1,.21-2.56,1.52,1.52,0,0,1,1.27-1.2c.39,0,.68.25,1.16.62a17.51,17.51,0,0,1,1.53,1.48c1,1.1,1.82,2.33,2.78,3.31h.1c.09.13.09.13.1,0h.09v-.12a5,5,0,0,0,0-1.22,20.51,20.51,0,0,1-.55-3.53,9.79,9.79,0,0,1-.18-1.46c0-.24,0-.37.1-.49s.1-.24.19-.12c.1-.12.2,0,.29,0a1.63,1.63,0,0,1,.48.37,16.4,16.4,0,0,1,1.63,2.33,19,19,0,0,0,5.47,5.77A40.34,40.34,0,0,0,48,95.06,24.66,24.66,0,0,0,55.41,97a5.48,5.48,0,0,0,2.8-.22,3.44,3.44,0,0,0,1.85-1.44.29.29,0,0,0,.2-.12h.29c.29,0,.58.12.87.13a18.23,18.23,0,0,0,2.12.63,2.2,2.2,0,0,0,.87.13h.19v-.37c0-.12,0-.24-.1-.24a3,3,0,0,0-.28-.61c-.39-.61-1-1.23-1.34-1.72A20.45,20.45,0,0,0,53.07,87a14,14,0,0,0-5-.42,7,7,0,0,0-3.69,1.91.69.69,0,0,1-.59.48,3.09,3.09,0,0,1-.87-.25,13.46,13.46,0,0,1-2-1.73c-1.92-2.09-3.65-4.42-5.56-6.63a61.54,61.54,0,0,0-6.05-6.39,8.08,8.08,0,0,0-2.79-1.37,2.56,2.56,0,0,0-2.23.71,1.24,1.24,0,0,1-.58.24,6.34,6.34,0,0,0-.78-.38,6.84,6.84,0,0,1-1.53-2,40.43,40.43,0,0,1-3.62-6.61,16.67,16.67,0,0,1-1.14-3.18A11.38,11.38,0,0,1,16.22,60a3.68,3.68,0,0,1-.18-1V58.7c0-.12,0-.24.1-.24s.1-.12.1-.24a.26.26,0,0,0,.19.12,7.65,7.65,0,0,1,1.82,1.73,14.07,14.07,0,0,0,3.08,3.07c.09.12.29.12.38.12s.2-.12.2-.24a1.67,1.67,0,0,0,.3-1c0-2.92-.54-6-.32-8.76A12.75,12.75,0,0,0,22,51.34v-.61c0-.12-.09-.12-.09-.12l-.1-.13h-.29A5.71,5.71,0,0,0,21,51a3.65,3.65,0,0,1-1.75.71c-1.07.11-1.93-.39-2.89-1.61a25.11,25.11,0,0,1-3.92-6.74c-.85-2.44-1.79-5-2.55-7.69A51.76,51.76,0,0,0,7.37,29a17.72,17.72,0,0,0-1.72-2.21,3.92,3.92,0,0,0-2-1.11.75.75,0,0,1-.29-.25.75.75,0,0,1-.29-.25A10.81,10.81,0,0,1,2.28,24a35.22,35.22,0,0,1-1-3.42A14.76,14.76,0,0,1,.4,17.16a5.8,5.8,0,0,1-.18-1.1.5.5,0,0,1,.1-.36c0-.12.1-.12.19-.12a.65.65,0,0,1,.48.25l.87.74a18,18,0,0,1,2.49,2.58c2.31,2.34,4.51,4.79,6.91,7.25,2.21,2.22,4.32,4.55,6.53,6.76A14,14,0,0,0,19.9,35a.77.77,0,0,0,.58.37h.19v-.12c0-1.58.12-2.67.13-4.13h0V31c-.09-.12-.19,0-.28-.12a3,3,0,0,1-1.35-.74c-3.08-2.47-6.24-7.13-8.72-11.53a50,50,0,0,1-3.9-8.56,21.64,21.64,0,0,1-1-4.27,14.79,14.79,0,0,1-.45-3.9A1.61,1.61,0,0,1,5.46.66c.11-.36.3-.6.59-.6C6.63-.18,7.4.32,8.27.81c2.21,1.24,4.52,3.58,6.82,5.92s5,5,7.39,7.5c1.64,1.48,3.56,3.44,5.1,3.82,6.76,1.66,13.36,10.73,20,11.65,2.32.27,4,1.38,6.55,3.47a47,47,0,0,0,6.64,5.55c1.92,1.36,4.14,1.87,6.16,2.86,1.16.62,2.41,1.25,3.57,2a5.15,5.15,0,0,1,1.25.86,1.34,1.34,0,0,0,.38.37c0,.12,0,.12.1.25v.12a.69.69,0,0,1,0,.61c0,.12-.1.24-.1.36-.29.12-.48.36-.77.36a8.64,8.64,0,0,1-2.71-.88c-2.79-1.37-5.68-3.35-8.57-5.08a71.35,71.35,0,0,0-9.44-5.21,10.58,10.58,0,0,0-3.28-1,3.84,3.84,0,0,0-1.16.11,1.4,1.4,0,0,0-.68.73v.12a.45.45,0,0,0-.1.24s.09,0,.09.12v.12c.29.37.58.62.77.86a33.45,33.45,0,0,0,3,2.59c3.17,2.34,6.25,4.45,9.53,6.55s6.54,4.32,10,6.68c1.16.86,2.31,1.6,3.47,2.46a9.54,9.54,0,0,1,1.82,1.48,1.83,1.83,0,0,0,.67.86c.3,0,.39,0,.49-.11.48-.12.68-.73,1-1.09a.7.7,0,0,0,.19-.36,1,1,0,0,1,.58-.12,8.13,8.13,0,0,1,1.65.26A33.47,33.47,0,0,1,84,57.7c3,1.37,6.27,2.87,9.25,4.36-3.27-2.35-6.34-5.3-9.51-8A29.93,29.93,0,0,1,80,50a28,28,0,0,1-3-4.65A5.32,5.32,0,0,1,76.33,44c-.1-.24-.09-.36,0-.36h.1l.1-.12a.82.82,0,0,1,.29.24c.19.13.28.13.38.25a3.58,3.58,0,0,1,1,.86c1.06,1,1.92,2.09,3,3.2,6,6.27,12.42,8.4,18.27,15.28h-.68a1.47,1.47,0,0,1-.11,1.34c-.09,0-.09.12-.19.12.29.12.67.37,1.06.5,1.93,1,3.75,2.11,5.59,3.1-.67-1.11-1.63-2.33-2.4-3.56-.19-.37-.47-.85-.76-1.34a5,5,0,0,1-.19-1c.1-.12.1-.24.2-.24h.29a1,1,0,0,1,.58.13,5,5,0,0,0,.68.25c.67.5,1.44,1,2.21,1.48-.57-.85-1.24-1.83-1.91-2.69-.48-.74-1-1.48-1.44-2.09h0c-.1,0-.1,0-.29-.12s-.1,0-.29-.13a2.07,2.07,0,0,1-.58-.49,16.66,16.66,0,0,1-3-4.17l-.29-.37a2.43,2.43,0,0,0-.48-.49A23.08,23.08,0,0,0,93,50.25a48.12,48.12,0,0,0-6.17-3.1,6.92,6.92,0,0,1-.77-.38,3.6,3.6,0,0,1-.87-.62,15.08,15.08,0,0,1-1.53-1.6,19.42,19.42,0,0,1-2.58-3.79,9.49,9.49,0,0,1-1.43-3.3,1.69,1.69,0,0,1,0-1c0-.12.1-.12.19-.12-2.49-2.58-5-5.4-7.58-8A44.91,44.91,0,0,1,69,24a31.07,31.07,0,0,1-2.38-4.89,3.57,3.57,0,0,1-.57-1.59v-.37h.1c.1,0,.19.13.19.13s.19.12.29.12a.37.37,0,0,0,.19.37,6.54,6.54,0,0,1,.86,1c.77,1.1,1.73,2.33,2.59,3.44C75.48,29,81.45,32,86.62,39.35H86v.48c1.73,1,3.27,2.23,5,3.34,1.54,1,3,2,4.52,3-1.72-2.57-3.24-5.39-4.86-8.33a44.36,44.36,0,0,0-5.45-8.21,25.64,25.64,0,0,0-4-3.93A41.09,41.09,0,0,0,75.73,22a1.61,1.61,0,0,1-.68-.5,3.16,3.16,0,0,1-.77-.61c-.47-.49-1-1.11-1.34-1.6a18.88,18.88,0,0,1-2.19-4,10.68,10.68,0,0,1-1.13-3.42c-.1-.36-.1-.73.1-.85s.2-.24.29-.24.29.13.39.13a4.61,4.61,0,0,1,1.15.86,15.17,15.17,0,0,1,2.12,1.61c2.11,1.72,4.13,3.45,6.15,5.17,5.67,4.93,11.24,9.85,16.91,14.41a8.34,8.34,0,0,0,.77.62,3.37,3.37,0,0,1,.21-2.19,1.42,1.42,0,0,1,1.17-.71,3.62,3.62,0,0,1,1.93.26c-1.53-1.6-3-3.08-4.31-4.67a62.23,62.23,0,0,1-8-10.79,15.07,15.07,0,0,1-2-4.53,3.93,3.93,0,0,1,0-3.16,1.48,1.48,0,0,1,1.17-.6,11.86,11.86,0,0,1,1.73.38,65.5,65.5,0,0,1,5.88,3.23ZM537.41,180a30.53,30.53,0,0,0,2.92-2.28c.48-.49,1-1,1.46-1.45a8.69,8.69,0,0,0,.78-1.33c.1,0,.1-.12.1-.12v-.12h-.1s0-.12-.09,0a2.8,2.8,0,0,0-.88.23,23.59,23.59,0,0,0-3.59,1.55c-3,1.55-6.12,3.22-9.23,4.89,1.27-.35,2.43-.58,3.69-.94a14.83,14.83,0,0,1,4.94-.43Zm-12.7-22.53c8.18-5.75-.86-1.1-8.43,3,1.25-.11,2.61,0,3.87-.08,1.45-1,3.1-1.92,4.56-2.88Zm-10.4,6.47c.21-2.07-7.93.16-10.58,4.51-1.27,1.94,10.39-4.39,10.58-4.51Zm71-35.05a.65.65,0,0,0-.2.37c2.8.75,5.62-1.65,8.52-1.25.48,0,1.07.13,1.55.13a4,4,0,0,1,.48-.11h.1l.1-.12h.1c0-.12,0-.12-.1-.13.1-.11,0-.11,0-.24a1,1,0,0,0-.48-.49,10.32,10.32,0,0,0-1.93-1,3.36,3.36,0,0,0-1.93-.39c-1.45.35-2.9.34-4.45.69-.29.11-.68.23-1,.35a2.62,2.62,0,0,0-.78.48.66.66,0,0,0-.2.36c0,.12,0,.12-.1.37a9.87,9.87,0,0,1,.29,1Zm-8.9-.33a5.43,5.43,0,0,0,2,.38h.67c.1,0,.1,0,.2-.12v-.24c0-.12-.1-.12-.19-.13a1.81,1.81,0,0,0-.68-.61,3,3,0,0,0-1.73-.75.76.76,0,0,0-.49.12v.12l-.09.12a.86.86,0,0,0,.09.49c0,.24,0,.48.19.61Zm-476.33-4.08a1.58,1.58,0,0,1,1.07-.48,5.12,5.12,0,0,1,3.29.16,15.71,15.71,0,0,1,3.28,1.13,5.49,5.49,0,0,1,1.09-3.16,11.72,11.72,0,0,0,.88-1.2v-.49c-.1,0-.1,0-.1-.12s-.19-.12-.19-.12-.1-.13-.19-.13a.32.32,0,0,0-.29-.12c-.19-.25-.39-.25-.68-.25a14,14,0,0,0-2-.51,43.3,43.3,0,0,1-6.46-2,14.25,14.25,0,0,0-2-.87c-3.29.21-6.48,1.15-9.87,1.48.19.13.29.25.48.37a35.51,35.51,0,0,1,5.77,4,.77.77,0,0,1,.58.37c1.83.62,3.66,1.37,5.4,2ZM86.3,118a.9.9,0,0,0-.49.12l-3.68,0c1.65.62,3.29,1.13,5.12,1.75a6.48,6.48,0,0,1-.67-1.1L86.3,118Zm-24.16-3.42a12.93,12.93,0,0,0-5.82,2c-.1,0-.2.12-.29.12,14.37,4.9,28.84,10.52,43.31,16a92.51,92.51,0,0,1-8.55-8.24c-.38-.5-.77-.87-1.24-1.48-2.9-.88-5.79-1.76-8.88-2.52-6.09-1.65-12.36-3.66-18.53-5.92ZM60.35,82.89c-9.16-3,6.53,6.28,12.41,9.38.1,0,.19.12.29,0s.1,0,.1-.12c-.19-.24-.29-.48-.48-.73L70.18,87.5c-3.27-1.5-6.45-3-9.83-4.61ZM94.7,94.57a46.51,46.51,0,0,0-8.2-2.76c2.41,1.85,4.81,3.57,7.12,5.18,2.51.64,4.73,1,5.32.54.09,0-1.26-.86-2.22-1.48a8.46,8.46,0,0,1-1.34-.87c-.1,0-.2-.12-.49-.37l-.09-.12a.11.11,0,0,1-.1-.12ZM8.54,40.25c.1-.12.2-.24.29-.24C6.74,35,4.14,33.75,2,29.23A16.56,16.56,0,0,0,.62,26.66a3.82,3.82,0,0,0-.29-.61c-.09,0-.09,0-.19-.13V25.8c-.09,0-.09,0-.1.12v.13c-.09,0,0,.24,0,.24.09.48.28,1.09.38,1.58A34.57,34.57,0,0,0,1.83,32a13.28,13.28,0,0,0,1.53,3.3c1.14,2,2.39,3.92,3.63,5.75.28.37.67.74.86,1a.8.8,0,0,0,.58.37c.1,0,.19-.12.19-.12,0-.25.1-.36.1-.49a4.9,4.9,0,0,0-.18-1.58ZM15.79,53.1a27.27,27.27,0,0,0-1.71-3.42,3.1,3.1,0,0,0-.48-.74l-.09-.12h-.2v.24a1,1,0,0,0,.19.49A10.89,10.89,0,0,0,14,51.26a16.57,16.57,0,0,0,1.43,3.42c0,.12.19.24.28.37h.1s0-.13.1-.12v-.61a7.06,7.06,0,0,0-.18-1.22Zm547.86-.17c-.2.24-.39.36-.59.6h.1c0,.13.1.13.19.13h.2c1.65-1.08,3.2-2.16,4.76-3.23a20.62,20.62,0,0,0-2.72,1.3c-.58.36-1.26.72-1.75,1.08-.19,0-.19.12-.19.12Zm120.56,9.16a.87.87,0,0,0-.48.12c3.45,3.8,8.38,5.07,12,8.88.58.74,1.15,1.35,1.73,2a5.61,5.61,0,0,0,.58.49c.09.12.19.12.28.25h.2c0,.12.09.12.09.12s.1,0,.2-.12v-.12c-.09-.37-.19-.73-.28-1A8.9,8.9,0,0,0,697,69.89a10.25,10.25,0,0,0-2.2-2.58c-2.12-1.6-4.14-3.33-6.45-4.81l-1.54-1a5.53,5.53,0,0,0-1.35-.5h-.68a.32.32,0,0,0-.29.12c-.29.24-.29.48-.3,1ZM671.33,51.85a30.54,30.54,0,0,0,2.88,2.47c.29.25.49.37.77.62.1,0,.19.12.29.12s.2.12.29,0h0a.5.5,0,0,0,.1-.36,2.52,2.52,0,0,0-.57-1.1,10.5,10.5,0,0,0-2.3-2.58,1.22,1.22,0,0,1-.58-.25h-.39c-.19.11-.29.24-.29.36a.87.87,0,0,0-.2.72Zm-92.17,47c-4.19,2.76-8.27,5.39-12.55,8.15,3.4-1.31,6.79-2.49,10.19-3.91,1.26-.6,2.62-1.19,4-1.91.59-.48,1.07-.84,1.75-1.32.1,0,.2-.12.29-.12a4,4,0,0,0,1.08-1.2s0-.13.1-.13,0-.12-.1-.12-.1,0,0-.12h-.1a3.1,3.1,0,0,0-1.06,0A18.84,18.84,0,0,0,579.16,98.85Z" style="fill:#f15a29"/><path d="M406.23,315.39c-.39-.12-.39.12-.78.12-.39,1.33-2,7,.72,7.18,3.1.16.92-5.71.06-7.3ZM247.72,234.65c-.4,1.57,2.8.88,6.95,1.77,3.57.77,8,3.37,9.45,3.75,6.47,2.14-2-3.55-4.13-3.33-2.12-.87-9.55-3.75-12.27-2.19ZM357.21,250c.57.25,1.35-.47,1.94-.83l.58-.36a25.84,25.84,0,0,1,2.33-1.44c.2,0,.2.13.29,0,.3-.12.88-.12,1.36-.23a4.08,4.08,0,0,0,.88-.36c.09,0,.19.12.38.13a15.87,15.87,0,0,1,3.48-.09c.11-.85-.57-.86-1-1s-.87.23-1.35.22a5.64,5.64,0,0,0-1.94.23c-.19,0-.29-.12-.38-.13s-.3.24-.3.36a5.32,5.32,0,0,1-.67-.13,21,21,0,0,0-3.3,1.19,4.14,4.14,0,0,0-1.36.84c-.1,0-.59.48-.59.48a3.58,3.58,0,0,0-.39,1.09Zm-2.93,28.45c-.2,0-.73,6.2-.35,6.81,1-.36.63-6.08.35-6.81Zm-50-30.58c-3.75-3-7.68,3.81-7.93-.45a5.12,5.12,0,0,1,3.2-1.55h0c1.06,0,3.88-.81,4.44.9.1,0,.77,1.1.29,1.1Zm3.47,1.38c-.37-2.2,4.57-3.25,4.94-.81-1.06-1-4.45-.77-4.94.81Zm-4.5,30.25c0,3-.61,16.18-1.92,11.18-.94-4.15,2.26-17.5,1.92-11.18Zm-77.52,29.26c0,1.58-.72,5.47-1.67,2.78-.57-1.47,1.68-5,1.67-2.78ZM224.9,320c0-2.07,0-3.77-.93-5-1.25-1.6-1.49,16.9,1.15,13.52,1.27-1.57-.24-6.58-.22-8.52Zm20.3-84.74c-.86-1.11-6,1-5.82,1.64,1.35.14,5,.06,5.82-1.64Zm21,32.22c-3.39.21-2.05-9.39-1.26-11.69.1-.49,2.75-5.09,2.35-4-1.39,4.12-2.26,4.84-.18,10.58,1.14,2.94.64,4.88-.91,5.1Zm-51.08-37.77c-6.77-.07-10.76,2.94-14.36-6.72,1.93,1.12,2.69,3.44,5.1,3.47,1.07,0,2.14-1.2,3.19.15.67.86-.68.84-.69,1.7,0,.48,4.07.28,4.55.29.87,0,2.7,1.12,2.21,1.11Zm100.24,122.5c-.49.72-.2,1.21.76,1.47.3-.61,0-1.1-.76-1.47Zm0,4.26c-.39,0-.39.24-.78.23-.4,1.34-2,7,.72,7.19C318.39,364,316.21,358,315.36,356.44Z" style="fill:#e2f2f0"/><g style="mix-blend-mode:overlay"><path d="M438.91,96.71a7.61,7.61,0,0,1,1.83.73,1.84,1.84,0,0,1,.88.65c1.39-1,2.73-2,4.06-3.06.76-.55,1.46-1.1,2.22-1.64A38.33,38.33,0,0,0,443,94.53c-.69.31-1.52.62-2.28,1a15.1,15.1,0,0,1-1.84,1.17ZM137.41,29.88C173.31,73.23,326,87.12,414.2,43.15l3.62-2.34a15.49,15.49,0,0,1,2.78-1.41c.51-.23,1.21-.46,1.59-.22s.24.8,0,1.43l-.12.16c-.13.16-.26.24-.32.39-.38.32-.76.63-1.08,1-1.4,1.17-2.67,2.27-4,3.37-1.14.94-2.22,1.88-3.37,2.83,4.26-3.06,8.45-6.11,12.77-9.09,4.89-3.44,9.65-7.36,14.6-10.73,1.34-.86,2.61-1.72,3.87-2.42,1.08-.55,2.1-1.09,3.11-1.48a2.55,2.55,0,0,1,1.83-.22c.38.17.25.8.06,1.35a.41.41,0,0,0-.13.24,2.18,2.18,0,0,0-.38.31,8.28,8.28,0,0,1-1.21,1c-1.4,1.18-2.8,2.2-4.19,3.38-4.07,3.37-8.27,6.66-12.27,10-4.19,3.45-8.33,6.82-12.58,10.35a1,1,0,0,1,.31-.15c.38-.16.76-.39,1.14-.55,7.82-6,15.57-12.15,23.5-17.31,2.86-1.72,5.4-3.84,8.19-5.79a6.29,6.29,0,0,1,1.34-.86,3.22,3.22,0,0,1,1.14-.39,2,2,0,0,1,.88.25l.75,1a2.7,2.7,0,0,1-.13.56,2.1,2.1,0,0,1-.39.63,18.46,18.46,0,0,1-1.9,1.72,56.22,56.22,0,0,1-5.4,4.08c-.64.47-1.4.94-2.1,1.41a.36.36,0,0,1,.06.24c.13.08.19.16.19.24s.13-.08.19-.08a10.21,10.21,0,0,1,1.52-.7,3.4,3.4,0,0,1,.44-.07c0,.07.13,0,.19.08s0,.31-.19.47-.38.55-.51.79c-1.27,1.42-2.67,2.67-4,3.85a3.41,3.41,0,0,0-.89.79c-1.14,1.26-2.29,2.52-3.5,3.77-2.16,2.28-4.33,4.65-6.56,7,3.94-3.3,7.45-7.08,11.64-9.81A28.9,28.9,0,0,0,448,39.37a3.38,3.38,0,0,1,.51-.47,1,1,0,0,1,.5.08.7.7,0,0,1,.38.48,4.18,4.18,0,0,1,.56,1.12,1,1,0,0,1,.06.48,1.48,1.48,0,0,1-.2.47,2.56,2.56,0,0,1-.57,1,11.7,11.7,0,0,1-2,2.12c-.45.48-1.08.87-1.46,1.34a.07.07,0,0,1-.07.08s.07.08,0,.08h.13c.31-.08.57-.23.95-.31s.44-.23.63-.15c0-.08.06,0,.19,0s.06.08.06.16h0c3.43-2,6.79-4.06,10.09-6.33,1.08-.62,2.16-1.41,3.3-2.11.13-.08.13-.16.19-.24a7,7,0,0,1,.95-.62,2.2,2.2,0,0,1,.83-.47,5.09,5.09,0,0,1,1-.23,3.66,3.66,0,0,1,1.26-.07,34.43,34.43,0,0,1,4,.13,12.19,12.19,0,0,0,4.49-.12,25.76,25.76,0,0,0,4-1.3,34.1,34.1,0,0,1,4.11-1.23,12.77,12.77,0,0,1,4.61-.12c2,.27,3.91.76,6,.86a12,12,0,0,1,4.73,1.56,25.81,25.81,0,0,1,4.71,3.3,9,9,0,0,1,1.5,1.69,2.46,2.46,0,0,1,.49,1.51,1.43,1.43,0,0,1-.76,1.11,7.81,7.81,0,0,1-2.47.45,3.9,3.9,0,0,1-1.64-.26c-.75-.16-1.51-.41-2.33-.58a39.19,39.19,0,0,0-4.16-1c0-.08-.13,0-.19,0h-.06c-.07,0-.13.07-.13.07l-.06.08a1.15,1.15,0,0,0-.07.48,14.81,14.81,0,0,1,.3,1.59,1.68,1.68,0,0,1-.07.63c-.06.16-.12.16-.25.24s-.19.16-.25.16a1.3,1.3,0,0,1-.57.07,1.25,1.25,0,0,1-.63-.17,14.59,14.59,0,0,1-2.14-.65,21,21,0,0,0-8-1A72.76,72.76,0,0,0,468.68,45a78.64,78.64,0,0,0-11.4,4.09c-.44.15-.82.39-1.2.54a3.55,3.55,0,0,0,.88.09,2.11,2.11,0,0,0,1,.17,18,18,0,0,1,3.35-1.16h0a.6.6,0,0,0,.39-.31c.76-.47,1.58-.94,2.34-1.33a5.72,5.72,0,0,1,2.6-.69,15.4,15.4,0,0,0,3.41.12,4.31,4.31,0,0,1,2.14.5,8.15,8.15,0,0,0,1.27-.78c.38-.16.63-.31,1-.47a6.05,6.05,0,0,1,1.27-.3,21.15,21.15,0,0,1,3.16-.13,45,45,0,0,1,7.94,1.12,81.68,81.68,0,0,0,8.83,1.44,39.42,39.42,0,0,0,4.1.36,15.49,15.49,0,0,0,3.8-.28,3.53,3.53,0,0,1,.94-.07,4.87,4.87,0,0,1,1.07.17,8.83,8.83,0,0,1,2.4.9,26,26,0,0,1,4.46,2.9c.5.57.94,1.05,1.37,1.61a2.67,2.67,0,0,1,.32.56c.06.16.12.32.06.39s-.07.08-.13.16-.07.08-.13.08h-.31c-.07,0-.26-.08-.38-.09a17.07,17.07,0,0,1-2.52-.9,20.25,20.25,0,0,0-4.35-1.39,1.91,1.91,0,0,0-.63-.09,3.43,3.43,0,0,1-.38.08,1.39,1.39,0,0,0-.51.39c-.51,1.19-.14,2.46-.91,3.72a2,2,0,0,0-.45.79.36.36,0,0,0-.06.24s.06,0,.06.08h.06v.08h.57c.25-.08.57-.16.89-.23a17.29,17.29,0,0,1,3-.29,10.34,10.34,0,0,1,4,.84,12.28,12.28,0,0,1,4.58,3.22A23.24,23.24,0,0,1,519,64.57a13.26,13.26,0,0,0,2.44,3.05,6.82,6.82,0,0,0,2,1.29,16.92,16.92,0,0,0,2.89,1,.45.45,0,0,0,.32.16,1.19,1.19,0,0,0,.31.24,1.53,1.53,0,0,1,.56.57,5.06,5.06,0,0,1,.94,1.52,3.13,3.13,0,0,1,.24,1.35.51.51,0,0,1-.13.4c-.06,0-.12.07-.19.07h-.25l-.63-.25c-.31-.16-.63-.32-.88-.48a31.81,31.81,0,0,1-3-1.62c-2.77-1.46-5.53-2.92-8.3-4.22-2.77-1.06-5.48-2-8.31-2.94-.88-.25-1.89-.5-2.71-.75a2.54,2.54,0,0,1-.82-.16c-.13,0-.19,0-.26.07H503a5.21,5.21,0,0,1-.84,1.74h0v.08h.07a.67.67,0,0,1,.38.08,7.68,7.68,0,0,1,1.89.26,28.52,28.52,0,0,1,10.32,4.79,12.84,12.84,0,0,1,3.69,3.62,6.14,6.14,0,0,1,.69,1.75,2.9,2.9,0,0,1-.33,1.43,1.9,1.9,0,0,1-.64.39,3.44,3.44,0,0,1-1,.15,11.78,11.78,0,0,1-2.83-.35,79.21,79.21,0,0,1-8.2-2.39,70.61,70.61,0,0,0-9.07-2.08c-1-.17-2.08-.34-3.09-.43a4.79,4.79,0,0,1,.69,1,3.89,3.89,0,0,1,.43,1.2c0,.16,0,.32,0,.48l-.12.15s0,.08-.13.08-.25.08-.38.08h-.76l-2-.26c-1.89-.34-3.72-.59-5.55-.77s-3.66-.28-5.49-.38a12.06,12.06,0,0,0-1.7,0,1,1,0,0,0-.51.07c-.06,0-.12.08-.12.08h0v.08a10.22,10.22,0,0,1-.45,2h.31a5.73,5.73,0,0,1,1.14-.22,12.88,12.88,0,0,1,7,1.66,8.45,8.45,0,0,1,2.76,2.25,2.85,2.85,0,0,1,.62,1.44,2.75,2.75,0,0,1,.05,1.59.86.86,0,0,1-.32.63,2.73,2.73,0,0,1-.64.63,4.41,4.41,0,0,1-1.83.61,26,26,0,0,1-5.56.18c-2.09,0-4.11-.2-6.13-.14a11.58,11.58,0,0,0-4.23.67c-5.71,2.64-11.2,1.87-16.9,5.23a18.43,18.43,0,0,1-2.86,1.32c-3,2.11-6,4.31-8.95,6.42.06.08.06.24.12.32a2.19,2.19,0,0,1,0,1.27,4.12,4.12,0,0,1-.78,1.5,5.63,5.63,0,0,1-.88.55,9.65,9.65,0,0,1-1.08.39c-.76.22-1.46.38-2.21.61h-.13v.08l-.07.07s-.06.08,0,.08a.94.94,0,0,0,.13.48,5.28,5.28,0,0,0,.62,1.2,1.87,1.87,0,0,1,.12.56,2.11,2.11,0,0,1-.06.31.57.57,0,0,1-.13.24c0,.08-.13.16-.26.16a.5.5,0,0,1-.38.15,4.28,4.28,0,0,1-1.07.07,10.15,10.15,0,0,0-4.24,1.23,44.4,44.4,0,0,0-5.58,3.28,45.18,45.18,0,0,0-5.47,4.23,17.79,17.79,0,0,0-2,2,11.88,11.88,0,0,0-1.28,1.9c0,.08-.13.16-.13.23s-.19.16-.25.16a6.31,6.31,0,0,0-.7.63,18.06,18.06,0,0,0-1.53,1.09,4.79,4.79,0,0,0-.57.48c0,.08-.13.15-.19.23v.24h0c.12,0,.19.08.25,0a2.35,2.35,0,0,0,1.07-.07,20.58,20.58,0,0,0,7.3-3.89,20.18,20.18,0,0,0,3.68-3.3,17.68,17.68,0,0,0,2.62-3.47.84.84,0,0,1,.38-.55,3.67,3.67,0,0,1,.58-.55,6.32,6.32,0,0,1,1.58-.62,40.59,40.59,0,0,1,4.24-1,20.9,20.9,0,0,0,4.62-1.54,7.43,7.43,0,0,0,2-1.41,6.12,6.12,0,0,0,1.59-2l.39-.47c.19-.16.44-.24.5-.31a2.85,2.85,0,0,1,1.33-.39,8.55,8.55,0,0,1,2.84.27,4.4,4.4,0,0,1,1.07.41.84.84,0,0,0,.38.32c0,.08.12.16.12.32s0,.08.06.16l-.12.16a.25.25,0,0,0-.07.15c-.12.08-.13.16-.19.16a3.1,3.1,0,0,1-1.39.62,6.92,6.92,0,0,0-2.35,1c-.12,0-.19.08-.31.24a2.29,2.29,0,0,1-.13.24,1.68,1.68,0,0,0-.07.55,20.48,20.48,0,0,1,.67,3.58c0,.32,0,.64,0,.87s.06.16.12.24h0c0,.08.07,0,.07,0h.06a.48.48,0,0,0,.13-.24c.19-.16.32-.4.51-.55a7.26,7.26,0,0,1,1.21-1.74,5.55,5.55,0,0,1,2-1.41,5.36,5.36,0,0,1,3.16,0,8,8,0,0,1,2.33,1.29,4.45,4.45,0,0,0,2.26.82,2.7,2.7,0,0,0,1.27-.38,8.77,8.77,0,0,0,1.65-1.18c0-.08.13-.08.13-.16a.43.43,0,0,1,.25-.07c.19-.08.32,0,.57,0a1.79,1.79,0,0,1,1,.49,2.28,2.28,0,0,1,.69.8,1.37,1.37,0,0,0,.13.4c-.07.08-.07.08-.07.16a.29.29,0,0,0-.06.16,1.67,1.67,0,0,1-.38.31c-.19.08-.45.23-.64.31a10.87,10.87,0,0,1-2,.93c-.76.39-1.52.7-2.28,1l2.9-.21c.26,0,.82,0,.95.25.06,0,0,.08-.07.16a.26.26,0,0,1-.19.08c-.12.08-.19.16-.31.15a.63.63,0,0,1-.38.16,4.21,4.21,0,0,0-.51.23c-.57.15-1.08.31-1.52.38-1.52.46-3.1.77-4.68,1.15-2.22.61-4.3,1.3-6.46,2.08v.07s-.06.08-.12.08l-.07.08h.07a6.45,6.45,0,0,1-.08,1.91v.08h0c.06-.08.06-.08.06,0h0a.63.63,0,0,0,.25-.24c.32-.23.64-.47,1-.7a15.92,15.92,0,0,1,7-1.76,5.41,5.41,0,0,1,3.09.67,2.13,2.13,0,0,1,1,.8,3,3,0,0,1,.43,1.36,3.14,3.14,0,0,1-.19.79c-.19.24-.26.56-.58.79a7.66,7.66,0,0,1-1.65,1.41,27.67,27.67,0,0,1-5.45,2.81c-2,.93-4,1.78-6,2.71a20,20,0,0,0-4.12,2.27c-5.28,4.47-10.65,5.6-15.87,10.08a22,22,0,0,1-3.87,2.74c-1.08.62-2.09,1.25-3.05,1.87-3.48,1.95-6.91,3.75-10.39,5.46-10,5-20,9.32-30,13.43-3.23,1.16-12.21,11.31-24.83,10.23-17-1.37-14.75-3.57-13,28.46A125.57,125.57,0,0,0,344.87,220c1,5.33-.14,18.19-4.18,18-2.21-.1-3.33-2-2.39-17.5.36-5.71.85-11.58,1.33-17.14.28-3.1.49-6,.7-8.81.93-13,3-14.9-7-12.07-3.93,1.15-7.08.8-7.92,3.33a17.91,17.91,0,0,0-.24,5.72c1.07,8.35-2.62,11.89-2.23,2.52a21,21,0,0,1,.86-4.6c1.88-6.41,2.12-4.19-4.45-4.65-7.07-.39-14.09.89-13.66,10.58.28,4.93,1.82,9.39,1.21,15.19-.68,6.27-2.67,10.77-3.16.84-.11-2.31,1-9.29,1.38-15.56.72-10.95-.69-7.95-8.09-7.31-9.79.85-7.65,2.07-8.14,15.33-.49,15.09.21,30.42-1.54,44.39-1.15,8.88-1.18,13.57-6.31,15.5-3.93,1.47-4.3-7.11-.24-18.43,2.84-8,13.13-55.15,4.1-56.2-7.76-1-9.15-8.67-9.7,5.62-.16,4.52.26,14.46-.91,18.81-.52,1.91-1.28,2.85-1.91,2.85-2,0-1.86-4.55-.75-9.39.92-4,2.72-8.23,2.8-11.25.16-12.15-1.61-11.53-5.48-9.58-3.11,1.55-6.88-.55-10.92-.75-4.54-.29-6.67-3.17-5.33,3.52,4.17,15.69-10.64,12.28-7.08.8,2.27-8,9.53-6.66-.94-9.31-6.93-1.74-14.55-3.72-17.94,1.64-3.78,6.08-.61,29.71-.93,38.12-.4,11,1.8,20.12-3.56,19-4.35-1-2.83-8.92-.35-19.23,2.41-9.82,1.83-24.76,2.23-34.84.25-8.18-8.5-11.29-13.69-10.79-4.67.35-5.19-13.56-21-7.84a14.55,14.55,0,0,0-1.9.93c-.07,0-.13.08-.19.16a2.36,2.36,0,0,0-.51.31.92.92,0,0,1-.51.07,1.94,1.94,0,0,1-.69-.17,8.89,8.89,0,0,1-.82-.48,21,21,0,0,1-2.57-2,7.08,7.08,0,0,0-3-1.38,8,8,0,0,0-2.4.21,22.17,22.17,0,0,1-2.4.45,5.84,5.84,0,0,1-2.9-.66,21.49,21.49,0,0,0-3.71-1.87,8.47,8.47,0,0,1-3.14-2.26,24.84,24.84,0,0,1-3.38-3.92,12.2,12.2,0,0,1-1.19-2.16,8.27,8.27,0,0,1-.68-1.91,2.77,2.77,0,0,1,.21-1.51,2,2,0,0,1,1.33-.78,2.07,2.07,0,0,1,1.13.25,11.58,11.58,0,0,1,1.45.73c.94.57,1.82,1.13,2.83,1.7h.06c.06.08.06.08.06,0h.07c.06,0,.06-.08.06-.08a1.32,1.32,0,0,0-.06-.71c-.18-.64-.37-1.28-.55-2a2.85,2.85,0,0,1,0-.79c0-.16,0-.24.06-.32s.13-.08.19-.16h.26a4.73,4.73,0,0,1,.5.24,9,9,0,0,1,1.44,1.21,16.72,16.72,0,0,0,5.41,3,74.91,74.91,0,0,0,7.56,2.15,40.47,40.47,0,0,0,7.38.79,14.94,14.94,0,0,0,2.78-.37,3.86,3.86,0,0,0,1.9-.86c.07,0,.19-.07.26-.07h1.2l2.14.26H198c.13,0,.19,0,.25-.08v-.16h0c-3.27-.67-6.55-1.49-9.89-2.32-2.21-.66-4.47-1.24-6.74-1.9a7.29,7.29,0,0,0-3.42,1.24.81.81,0,0,1-.57.23,2.94,2.94,0,0,1-.82-.09,11.47,11.47,0,0,1-2.14-.82c-1.76-1.05-3.59-2.34-5.41-3.39a48.61,48.61,0,0,0-4.27-2.51c-1.14-.41-2.33-.81-3.59-1.3h-.7a4,4,0,0,0-2.34.53c-.06.16-.25.24-.5.15a2.31,2.31,0,0,1-.7-.08,7.83,7.83,0,0,1-1.57-1.05,14.88,14.88,0,0,1-2.94-2.81q-20.4-8.31-40.65-18.3c-4.91-2.43-9.82-4.39-14.79-7a33.68,33.68,0,0,1-3.89-2.34,35.55,35.55,0,0,1-3.08-2.42,8.32,8.32,0,0,1-1.81-2.32,2.55,2.55,0,0,1,0-2.15H89a3.36,3.36,0,0,1,1.26.33c1.39.41,2.83,1,4.22,1.47,4.15,1.48,8.37,3,12.53,4.66,5.86,2.05,11.77,4.17,17.57,6.06-10-4.55-19.89-8.15-30-14.21-2.83-1.78-5.47-2.6-8.24-4a6.2,6.2,0,0,1-1.38-.81A5.89,5.89,0,0,1,83.71,98a5.56,5.56,0,0,1-.69-1.6,11.49,11.49,0,0,1-.61-2.31,1.49,1.49,0,0,1,.13-.63.43.43,0,0,1,.44-.24,3.39,3.39,0,0,1,1.9.34A44.68,44.68,0,0,1,90.35,96c1.39.65,2.64,1.46,4,2h.19v-.08h0l-.06-.08c-.06,0-.12-.08-.19-.16-.75-.64-1.44-1.13-2.13-1.69-.5-.4-1-.8-1.44-1.21a2.74,2.74,0,0,1-.44-.48,1.88,1.88,0,0,1-.19-.4.52.52,0,0,1,.13-.47c.26-.08.51-.08.7-.15a13.46,13.46,0,0,1,4.22.67c4.1,1,8.26,2.32,12.48,3.79a1.84,1.84,0,0,0-.38-.4,4.07,4.07,0,0,0-1.94-1.77,1.86,1.86,0,0,0-1.58.06c-.51,0-1,.23-1.52.23a3,3,0,0,1-2-1.06,16.85,16.85,0,0,0-2.57-2.41,9.25,9.25,0,0,1-2.06-2.8,27.1,27.1,0,0,1-2.3-4.87A13.93,13.93,0,0,1,92.42,82a9.29,9.29,0,0,1-.49-2.23,3.72,3.72,0,0,1,.14-1.67,1,1,0,0,1,.83-.78c.25,0,.44.16.75.41a9.92,9.92,0,0,1,1,1c.63.72,1.19,1.52,1.82,2.16h.06c.06.08.06.08.07,0h.06v-.07a4.28,4.28,0,0,0,0-.8,13,13,0,0,1-.37-2.31,5,5,0,0,1-.11-1c0-.16,0-.24.06-.32s.06-.16.13-.08c.06-.08.12,0,.19,0a1.39,1.39,0,0,1,.31.24,11.11,11.11,0,0,1,1.06,1.52,12.49,12.49,0,0,0,3.57,3.77,26,26,0,0,0,5,3.07,16.21,16.21,0,0,0,4.85,1.24,3.58,3.58,0,0,0,1.83-.14,2.23,2.23,0,0,0,1.21-.94.2.2,0,0,0,.13-.08h.19c.19,0,.38.09.57.09a11.58,11.58,0,0,0,1.38.41,1.62,1.62,0,0,0,.57.09h.13v-.24c0-.08,0-.16-.06-.16a2.55,2.55,0,0,0-.19-.4,13.68,13.68,0,0,0-.88-1.12,13.34,13.34,0,0,0-6.41-4,9.22,9.22,0,0,0-3.28-.27,4.63,4.63,0,0,0-2.41,1.24.44.44,0,0,1-.38.32,1.92,1.92,0,0,1-.56-.17,8.19,8.19,0,0,1-1.32-1.12c-1.25-1.37-2.38-2.89-3.63-4.33a39,39,0,0,0-4-4.17,5.18,5.18,0,0,0-1.82-.89,1.67,1.67,0,0,0-1.46.46.73.73,0,0,1-.38.15,3.37,3.37,0,0,0-.5-.24,4.59,4.59,0,0,1-1-1.28A27.2,27.2,0,0,1,86.8,65,11.54,11.54,0,0,1,86.06,63a8,8,0,0,1-.24-.87,2.48,2.48,0,0,1-.12-.64V61.2c0-.08,0-.16.06-.16s.07-.08.07-.16A.17.17,0,0,0,86,61a5.18,5.18,0,0,1,1.19,1.13,9,9,0,0,0,2,2,.29.29,0,0,0,.25.09c.06-.08.13-.08.13-.16a1.09,1.09,0,0,0,.19-.63c0-1.91-.35-3.9-.21-5.73a8.93,8.93,0,0,0,.08-1.27V56c0-.08-.06-.08-.06-.08l-.06-.08h-.19c-.07.08-.19.16-.32.32a2.3,2.3,0,0,1-1.14.46c-.7.08-1.26-.25-1.89-1a16.23,16.23,0,0,1-2.55-4.39c-.56-1.6-1.18-3.27-1.67-5A35.07,35.07,0,0,0,80,41.84a10.47,10.47,0,0,0-1.13-1.44,2.52,2.52,0,0,0-1.32-.73.48.48,0,0,1-.18-.16.45.45,0,0,1-.19-.16,7,7,0,0,1-.5-.8A22.66,22.66,0,0,1,76,36.31a10,10,0,0,1-.55-2.23,3.62,3.62,0,0,1-.12-.71.32.32,0,0,1,.07-.24c0-.08.06-.08.12-.08a.43.43,0,0,1,.32.17l.56.48a11.32,11.32,0,0,1,1.63,1.68c1.5,1.53,2.94,3.13,4.51,4.74,1.44,1.44,2.82,3,4.26,4.41a10,10,0,0,0,1.38,1.21.56.56,0,0,0,.38.24h.12V45.9c0-1,.08-1.75.09-2.7h0v-.08c-.07-.08-.13,0-.19-.08a2,2,0,0,1-.88-.49c-2-1.61-4.07-4.65-5.69-7.52a31.84,31.84,0,0,1-2.54-5.59,13.54,13.54,0,0,1-.68-2.79,9.48,9.48,0,0,1-.29-2.54,1,1,0,0,1,.26-.79c.06-.24.19-.4.38-.4.38-.15.88.17,1.45.49a23.27,23.27,0,0,1,4.45,3.86c1.56,1.61,3.26,3.29,4.82,4.9,1.07,1,2.32,2.25,3.33,2.5,4.41,1.07,8.72,7,13.07,7.6,1.52.17,2.65.9,4.28,2.27a30.9,30.9,0,0,0,4.33,3.62,28.17,28.17,0,0,0,4,1.87c.75.4,1.57.81,2.32,1.29a3.13,3.13,0,0,1,.82.56.74.74,0,0,0,.25.25c0,.08,0,.08.06.15v.08a.47.47,0,0,1,0,.4c0,.08-.07.16-.07.24-.19.08-.31.24-.5.23a5.51,5.51,0,0,1-1.77-.57c-1.82-.9-3.71-2.19-5.59-3.32a48.37,48.37,0,0,0-6.16-3.4,7.08,7.08,0,0,0-2.14-.66,2.43,2.43,0,0,0-.76.08.9.9,0,0,0-.45.47v.08a.32.32,0,0,0-.06.16s.06,0,.06.08v.08c.18.24.37.4.5.56a22.68,22.68,0,0,0,1.94,1.68c2.07,1.54,4.09,2.91,6.22,4.28s4.27,2.82,6.53,4.36c.76.56,1.51,1,2.27,1.61a7.06,7.06,0,0,1,1.19,1,1.26,1.26,0,0,0,.43.57c.19,0,.26,0,.32-.08.32-.08.45-.47.64-.71a.48.48,0,0,0,.13-.24.72.72,0,0,1,.38-.07,5.75,5.75,0,0,1,1.07.17A21.84,21.84,0,0,1,130,60.55c1.95.89,4.09,1.87,6,2.84-2.13-1.53-4.14-3.46-6.21-5.23a19.34,19.34,0,0,1-2.44-2.65,18.51,18.51,0,0,1-1.94-3,3.6,3.6,0,0,1-.43-.88q-.09-.24,0-.24h.06l.07-.08a.64.64,0,0,1,.19.16c.12.08.19.08.25.16a2.43,2.43,0,0,1,.63.57c.68.64,1.25,1.36,1.94,2.08,3.88,4.09,8.1,5.49,11.92,10h-.45a.93.93,0,0,1-.07.87c-.06,0-.06.08-.12.08a7.52,7.52,0,0,0,.69.33c1.26.65,2.45,1.37,3.65,2-.44-.72-1.07-1.52-1.56-2.32-.13-.24-.32-.56-.5-.88a2.61,2.61,0,0,1-.12-.63c.06-.09.06-.16.12-.16h.19a.64.64,0,0,1,.38.08,3.41,3.41,0,0,0,.44.17c.44.32.94.64,1.45,1-.38-.56-.82-1.2-1.25-1.76s-.63-1-.94-1.36h0c-.06,0-.06,0-.19-.08s-.06,0-.19-.08a1.32,1.32,0,0,1-.37-.32,10.91,10.91,0,0,1-1.94-2.72l-.19-.24a1.32,1.32,0,0,0-.31-.32,14.72,14.72,0,0,0-2.89-2.18,31.49,31.49,0,0,0-4-2c-.19-.09-.38-.17-.51-.25a2.43,2.43,0,0,1-.56-.4,8.61,8.61,0,0,1-1-1,12.62,12.62,0,0,1-1.69-2.48,6.21,6.21,0,0,1-.93-2.15,1,1,0,0,1,0-.63c0-.08.06-.08.12-.08-1.63-1.69-3.25-3.53-5-5.22a29.79,29.79,0,0,1-2.12-2.88,20.85,20.85,0,0,1-1.55-3.19,2.19,2.19,0,0,1-.37-1v-.24h.06c.06,0,.13.08.13.08s.12.08.19.08a.22.22,0,0,0,.12.25,4.06,4.06,0,0,1,.56.64c.5.72,1.13,1.52,1.69,2.24,3.38,4.48,7.27,6.43,10.65,11.23h-.38v.31c1.13.65,2.13,1.46,3.26,2.18s1.95,1.29,2.95,1.94c-1.12-1.68-2.11-3.52-3.17-5.44a28.61,28.61,0,0,0-3.56-5.35,15.85,15.85,0,0,0-2.63-2.57,26,26,0,0,0-3.58-2.42,1,1,0,0,1-.44-.33,2.23,2.23,0,0,1-.51-.4,13.32,13.32,0,0,1-.87-1,12.4,12.4,0,0,1-1.43-2.64,7.06,7.06,0,0,1-.74-2.23c-.06-.24-.06-.48.07-.55s.12-.16.19-.16.18.08.25.08a2.94,2.94,0,0,1,.75.56,10.91,10.91,0,0,1,1.38,1c1.38,1.13,2.7,2.25,4,3.38,3.7,3.22,7.33,6.43,11,9.41a5.4,5.4,0,0,0,.5.4,2.11,2.11,0,0,1,.14-1.43.94.94,0,0,1,.76-.47A2.48,2.48,0,0,1,141,43c-1-1-1.94-2-2.82-3a41.3,41.3,0,0,1-5.25-7,9.87,9.87,0,0,1-1.3-2.95,2.57,2.57,0,0,1,0-2.07.93.93,0,0,1,.76-.38,6.13,6.13,0,0,1,1.13.25,39.44,39.44,0,0,1,3.84,2.1ZM426,140.35a18.45,18.45,0,0,0,1.91-1.49l.95-1a5.63,5.63,0,0,0,.52-.86c.06,0,.06-.08.06-.08v-.08h-.06s0-.08-.07,0a2,2,0,0,0-.57.16,15.17,15.17,0,0,0-2.34,1c-2,1-4,2.1-6,3.19.82-.23,1.58-.38,2.4-.61a9.29,9.29,0,0,1,3.22-.28Zm-8.28-14.71c5.33-3.75-.56-.72-5.51,1.93.82-.07,1.71,0,2.53,0,.95-.63,2-1.25,3-1.88Zm-6.79,4.22c.14-1.35-5.18.11-6.91,2.95-.83,1.26,6.78-2.87,6.91-2.95ZM457.27,107a.48.48,0,0,0-.13.24c1.83.49,3.67-1.08,5.57-.82.31,0,.69.09,1,.09.07,0,.19-.08.32-.08h.06l.07-.08h.06c0-.08,0-.08-.06-.08s0-.07,0-.15a.69.69,0,0,0-.31-.32,6.25,6.25,0,0,0-1.26-.65,2.1,2.1,0,0,0-1.26-.25c-.95.22-1.9.21-2.91.44-.19.08-.45.16-.63.23a1.79,1.79,0,0,0-.51.32.39.39,0,0,0-.13.23.49.49,0,0,1-.06.24c.06.16.12.4.18.64Zm-5.81-.22a3.62,3.62,0,0,0,1.33.25h.44c.06,0,.06,0,.12-.08v-.16c0-.08-.07-.08-.13-.08a1.13,1.13,0,0,0-.44-.4,1.91,1.91,0,0,0-1.13-.49.54.54,0,0,0-.32.07V106l-.06.08a.61.61,0,0,0,.06.32c0,.16,0,.32.12.4Zm-310.91-2.66a1,1,0,0,1,.7-.31,3.23,3.23,0,0,1,2.14.1,10.68,10.68,0,0,1,2.15.73,3.63,3.63,0,0,1,.71-2,7.72,7.72,0,0,0,.57-.79v-.32c-.06,0-.06,0-.06-.08s-.12-.08-.12-.08-.07-.08-.13-.08a.2.2,0,0,0-.19-.08c-.12-.16-.25-.16-.44-.17a11.56,11.56,0,0,0-1.32-.33,28.07,28.07,0,0,1-4.22-1.31,9,9,0,0,0-1.33-.57c-2.14.14-4.23.75-6.44,1,.12.08.19.16.31.24a23.39,23.39,0,0,1,3.77,2.58.53.53,0,0,1,.38.24c1.19.41,2.39.9,3.52,1.31Zm-9-4.23a.56.56,0,0,0-.31.08l-2.4,0c1.07.41,2.14.74,3.34,1.15a4.64,4.64,0,0,1-.44-.72c-.06-.16-.12-.32-.19-.48Zm-15.76-2.23A8.45,8.45,0,0,0,112,99c-.07,0-.13.08-.19.07,9.38,3.2,18.82,6.87,28.27,10.46a60.79,60.79,0,0,1-5.58-5.38c-.25-.32-.5-.56-.81-1-1.89-.57-3.78-1.15-5.8-1.65-4-1.07-8.06-2.38-12.09-3.86ZM114.62,77c-6-2,4.26,4.09,8.1,6.12.06,0,.13.08.19,0s.06,0,.06-.08-.18-.32-.31-.48L121,80c-2.14-1-4.22-2-6.42-3ZM137,84.61a30.87,30.87,0,0,0-5.35-1.8c1.57,1.2,3.14,2.33,4.64,3.38,1.64.41,3.09.67,3.48.35.06,0-.82-.56-1.45-1a6.24,6.24,0,0,1-.88-.57c-.06,0-.12-.08-.31-.24l-.07-.08s-.06,0-.06-.08ZM80.8,49.15c.07-.07.13-.15.19-.15-1.36-3.27-3.06-4.08-4.49-7a10.35,10.35,0,0,0-.87-1.68,2.2,2.2,0,0,0-.19-.4c-.06,0-.06,0-.12-.08v-.08c-.06,0-.06,0-.06.08v.08c-.07,0,0,.16,0,.16.07.32.19.72.25,1a24.74,24.74,0,0,0,.92,2.71,8.74,8.74,0,0,0,1,2.15c.75,1.28,1.56,2.56,2.37,3.76.19.24.44.48.56.64a.51.51,0,0,0,.38.24c.06,0,.13-.08.13-.08a2.11,2.11,0,0,1,.06-.31,3.27,3.27,0,0,0-.12-1Zm4.74,8.39a20.21,20.21,0,0,0-1.12-2.23,1.91,1.91,0,0,0-.32-.48L84,54.75h-.12a1.47,1.47,0,0,1,0,.16.74.74,0,0,0,.13.31,6.68,6.68,0,0,0,.31,1.12,10.23,10.23,0,0,0,.93,2.23c0,.08.12.16.18.24h.07s0-.08.06-.08v-.4a3.79,3.79,0,0,0-.12-.8Zm357.59-.11c-.13.16-.25.24-.38.4h.06c0,.08.07.08.13.08h.13c1.08-.71,2.09-1.41,3.11-2.11a12.69,12.69,0,0,0-1.78.85c-.38.24-.82.47-1.14.7-.13,0-.13.08-.13.08Zm78.7,6a.59.59,0,0,0-.32.08c2.26,2.48,5.47,3.31,7.85,5.8.38.48.75.88,1.13,1.28.19.16.25.24.37.32s.13.08.19.16h.13c0,.08.06.08.06.08s.06,0,.13-.07V71a4.57,4.57,0,0,0-.19-.64,5.5,5.5,0,0,0-1-1.84,6.82,6.82,0,0,0-1.44-1.68c-1.38-1-2.7-2.18-4.21-3.15l-1-.64a4.5,4.5,0,0,0-.88-.33h-.45a.21.21,0,0,0-.19.08c-.19.16-.19.31-.19.63Zm-8.41-6.68a22.17,22.17,0,0,0,1.88,1.61c.19.16.32.24.5.4.07,0,.13.08.19.08s.13.08.19,0h0a.29.29,0,0,0,.07-.23,1.63,1.63,0,0,0-.38-.72,6.66,6.66,0,0,0-1.5-1.69A.82.82,0,0,1,514,56h-.25c-.13.08-.19.16-.19.24s-.13.23-.13.47ZM453.26,87.41c-2.73,1.79-5.4,3.51-8.19,5.31,2.21-.85,4.43-1.62,6.65-2.55.82-.39,1.71-.78,2.6-1.25.38-.31.7-.54,1.14-.86.06,0,.13-.07.19-.07a2.5,2.5,0,0,0,.7-.79s0-.08.07-.08,0-.08-.07-.08-.06,0,0-.08h-.06a2.24,2.24,0,0,0-.69,0A11.27,11.27,0,0,0,453.26,87.41Z" style="fill:#fff"/><path d="M340.38,228.75c-.25-.09-.25.07-.5.07-.26.87-1.3,4.6.47,4.69,2,.1.59-3.72,0-4.76ZM236.92,176c-.26,1,1.82.58,4.54,1.16,2.33.5,5.22,2.2,6.17,2.45,4.22,1.39-1.31-2.32-2.7-2.17-1.39-.57-6.24-2.45-8-1.44Zm71.46,10c.38.16.89-.31,1.27-.55l.38-.23a17,17,0,0,1,1.52-.94c.13,0,.13.08.19,0s.57-.07.89-.15a2.42,2.42,0,0,0,.57-.23c.06,0,.13.08.25.08a10.68,10.68,0,0,1,2.28-.05c.06-.56-.38-.56-.63-.65s-.57.16-.89.16a3.54,3.54,0,0,0-1.26.14c-.13,0-.19-.08-.25-.08s-.19.15-.19.23c-.19,0-.32-.08-.44-.08a13.43,13.43,0,0,0-2.16.77,2.69,2.69,0,0,0-.89.55c-.06,0-.38.31-.38.31a2.64,2.64,0,0,0-.26.72Zm-1.91,18.56a16.58,16.58,0,0,0-.22,4.45c.63-.23.41-4,.22-4.45Zm-32.61-19.95c-2.45-1.94-5,2.49-5.18-.3a3.33,3.33,0,0,1,2.09-1h0c.69,0,2.53-.53,2.9.59.06,0,.5.72.19.72Zm2.26.89c-.24-1.43,3-2.11,3.22-.52-.68-.64-2.9-.51-3.22.52Zm-2.93,19.75c0,2-.4,10.56-1.26,7.3-.61-2.71,1.48-11.42,1.26-7.3Zm-50.61,19.1c0,1-.47,3.57-1.08,1.82-.37-1,1.1-3.25,1.08-1.82Zm-.56,7.3c0-1.35,0-2.46-.6-3.26-.82-1-1,11,.75,8.83.83-1-.16-4.3-.15-5.57Zm13.25-55.31c-.56-.72-3.92.68-3.79,1.07.88.09,3.28,0,3.79-1.07Zm13.73,21c-2.21.13-1.34-6.14-.82-7.64.06-.32,1.79-3.32,1.53-2.6-.9,2.69-1.47,3.16-.11,6.91.74,1.91.41,3.18-.6,3.33ZM215.66,172.8c-4.42,0-7,1.92-9.37-4.38,1.26.72,1.75,2.24,3.33,2.25.69,0,1.39-.78,2.08.11.44.56-.45.55-.45,1.1,0,.32,2.65.19,3,.19.57,0,1.76.74,1.44.73Zm65.43,80c-.32.47-.13.79.5,1,.19-.4,0-.72-.5-1Zm0,2.78c-.26,0-.26.15-.51.15-.26.87-1.3,4.6.47,4.7C283.05,260.48,281.63,256.58,281.07,255.54Z" style="fill:#fff"/></g></g></g></g></svg>