<svg xmlns="http://www.w3.org/2000/svg" xmlns:xlink="http://www.w3.org/1999/xlink" viewBox="0 0 699.17 369.76"><defs><linearGradient id="GradientFill_1" x1="40.61" y1="306.87" x2="538.6" y2="-111" gradientUnits="userSpaceOnUse"><stop offset="0" stop-color="#5bb6d5"/><stop offset="1" stop-color="#69c8cf"/></linearGradient></defs><title>Asset 3</title><g style="isolation:isolate"><g id="Layer_2" data-name="Layer 2"><g id="object"><path d="M557.84,111.14a11.79,11.79,0,0,1,2.8,1.09,2.67,2.67,0,0,1,1.36,1c2.13-1.59,4.16-3,6.19-4.75,1.16-.85,2.22-1.7,3.38-2.55a58.31,58.31,0,0,0-7.44,1.82c-1.07.49-2.33,1-3.49,1.58a24.94,24.94,0,0,1-2.8,1.83ZM95.14,13.54c55.53,65.84,289.54,84.7,424.2,15.94l5.51-3.65a23.93,23.93,0,0,1,4.26-2.19c.77-.37,1.83-.73,2.41-.37s.39,1.22,0,2.19c0,0-.09.13-.19.25s-.39.36-.48.61c-.58.48-1.16,1-1.65,1.46-2.12,1.82-4.06,3.53-6.09,5.23-1.74,1.46-3.39,2.92-5.13,4.38,6.48-4.75,12.87-9.49,19.45-14.12,7.44-5.35,14.7-11.44,22.25-16.67,2-1.34,4-2.68,5.9-3.77A52.56,52.56,0,0,1,570.32.52a3.87,3.87,0,0,1,2.8-.37c.58.24.39,1.22.1,2.07a.65.65,0,0,0-.2.37,3.29,3.29,0,0,0-.58.48,11.93,11.93,0,0,1-1.83,1.58c-2.13,1.83-4.26,3.41-6.39,5.24-6.19,5.23-12.57,10.34-18.67,15.57-6.38,5.36-12.67,10.59-19.15,16.07a1.47,1.47,0,0,1,.48-.25c.58-.24,1.16-.6,1.74-.85,11.9-9.37,23.7-18.86,35.79-26.89,4.36-2.68,8.23-6,12.48-9a9.92,9.92,0,0,1,2-1.34,5,5,0,0,1,1.74-.6A2.85,2.85,0,0,1,582,3c.39.49.78,1,1.16,1.46a3.5,3.5,0,0,1-.19.85,3.14,3.14,0,0,1-.58,1,30.51,30.51,0,0,1-2.9,2.67,86.24,86.24,0,0,1-8.23,6.33c-1,.73-2.12,1.46-3.19,2.19a.52.52,0,0,1,.1.37c.19.12.29.24.29.36.19,0,.19-.12.29-.12A15,15,0,0,1,571.09,17c.19,0,.39-.13.68-.13,0,.13.19,0,.29.13s0,.48-.29.73-.58.85-.78,1.21c-1.93,2.19-4.06,4.14-6,6a5.11,5.11,0,0,0-1.35,1.21c-1.74,1.95-3.48,3.9-5.32,5.84-3.29,3.53-6.58,7.18-10,10.84,6-5.12,11.32-11,17.7-15.22,1.94-1.21,3.1-2.8,4.93-4.38a7,7,0,0,1,.78-.73,1.53,1.53,0,0,1,.77.12,1,1,0,0,1,.58.73A6.21,6.21,0,0,1,574,25c.1.12.1.36.1.73a2.58,2.58,0,0,1-.29.73,3.71,3.71,0,0,1-.87,1.58,18.2,18.2,0,0,1-3.1,3.29c-.67.73-1.64,1.33-2.22,2.06,0,.13-.1.13-.1.13s.1.12,0,.12h.2c.48-.12.86-.37,1.45-.49.38-.12.67-.37,1-.24,0-.13.1,0,.29,0,0,.12.1.12.1.24h0c5.22-3.16,10.35-6.33,15.38-9.86,1.65-1,3.29-2.19,5-3.28.19-.12.19-.25.29-.37a10.78,10.78,0,0,1,1.45-1,3.29,3.29,0,0,1,1.26-.73,7.13,7.13,0,0,1,1.55-.37,5.38,5.38,0,0,1,1.93-.12,53.67,53.67,0,0,1,6.19.12,18.62,18.62,0,0,0,6.87-.24,40.63,40.63,0,0,0,6.1-2.07,54.3,54.3,0,0,1,6.28-1.94,19.81,19.81,0,0,1,7.07-.25c3.09.37,6,1.1,9.19,1.22a18.09,18.09,0,0,1,7.25,2.31,38.91,38.91,0,0,1,7.26,5,13,13,0,0,1,2.32,2.56,3.8,3.8,0,0,1,.77,2.31,2.18,2.18,0,0,1-1.16,1.7,11.75,11.75,0,0,1-3.77.73,6.08,6.08,0,0,1-2.51-.36c-1.17-.25-2.33-.61-3.58-.85a61.31,61.31,0,0,0-6.39-1.47c0-.12-.19,0-.29,0h-.1c-.09,0-.19.13-.19.13l-.1.12a2,2,0,0,0-.09.73A23.18,23.18,0,0,1,639,29.6a2.9,2.9,0,0,1-.1,1c-.09.24-.19.24-.38.36,0,.12-.29.24-.39.24a1.62,1.62,0,0,1-.87.13,2,2,0,0,1-1-.25,23.63,23.63,0,0,1-3.29-1c-3.77-1.46-8.22-1.58-12.28-1.46a111.42,111.42,0,0,0-17.9,2.8,120.65,120.65,0,0,0-17.41,6.45c-.68.24-1.26.61-1.84.85a5.53,5.53,0,0,0,1.35.12,3.31,3.31,0,0,0,1.55.24,26.14,26.14,0,0,1,5.13-1.82h0a.9.9,0,0,0,.58-.49c1.16-.73,2.42-1.46,3.58-2.07a8.41,8.41,0,0,1,4-1.09,25.15,25.15,0,0,0,5.22.12,6.46,6.46,0,0,1,3.29.73,11.65,11.65,0,0,0,1.93-1.22c.58-.24,1-.49,1.55-.73a9.5,9.5,0,0,1,1.94-.48,31.86,31.86,0,0,1,4.83-.25,69.58,69.58,0,0,1,12.19,1.58,119.68,119.68,0,0,0,13.54,2.07,55,55,0,0,0,6.29.49,23,23,0,0,0,5.81-.49,5.49,5.49,0,0,1,1.45-.12,7.73,7.73,0,0,1,1.64.24,13.8,13.8,0,0,1,3.68,1.34A39.57,39.57,0,0,1,670,41.28c.77.86,1.45,1.59,2.13,2.44a4.06,4.06,0,0,1,.48.85c.1.24.19.49.1.61s-.1.12-.2.24-.09.12-.19.12h-.48c-.1,0-.39-.12-.58-.12a27,27,0,0,1-3.87-1.34A31.17,31.17,0,0,0,660.67,42a2.76,2.76,0,0,0-1-.13,4.81,4.81,0,0,1-.58.13,2.06,2.06,0,0,0-.77.6c-.78,1.83-.19,3.78-1.35,5.72a2.73,2.73,0,0,0-.68,1.22.51.51,0,0,0-.1.37.11.11,0,0,1,.1.12h.09v.12h.87c.39-.12.88-.24,1.36-.37a26.89,26.89,0,0,1,4.54-.48,15.93,15.93,0,0,1,6.1,1.21,18.77,18.77,0,0,1,7.06,4.87,36.18,36.18,0,0,1,3.77,5.23,19.77,19.77,0,0,0,3.78,4.63,10.46,10.46,0,0,0,3,1.95,26.07,26.07,0,0,0,4.45,1.46.66.66,0,0,0,.48.24,2.21,2.21,0,0,0,.48.36,2.25,2.25,0,0,1,.87.86,8.11,8.11,0,0,1,1.46,2.31,4.87,4.87,0,0,1,.38,2.07.79.79,0,0,1-.19.61c-.1,0-.19.12-.29.12h-.39c-.29-.12-.58-.24-1-.37a15.2,15.2,0,0,1-1.35-.73,47.05,47.05,0,0,1-4.64-2.43c-4.26-2.19-8.52-4.38-12.77-6.33-4.26-1.58-8.42-3-12.77-4.38-1.36-.37-2.9-.73-4.16-1.1a4.09,4.09,0,0,1-1.26-.24c-.19,0-.29,0-.39.12h-.19a8.08,8.08,0,0,1-1.26,2.68h0v.12h.1a1,1,0,0,1,.58.12,11.48,11.48,0,0,1,2.9.37,43.41,43.41,0,0,1,15.87,7.18,19.3,19.3,0,0,1,5.7,5.48,8.85,8.85,0,0,1,1.07,2.67,4.2,4.2,0,0,1-.49,2.19,2.67,2.67,0,0,1-1,.61,5.42,5.42,0,0,1-1.45.25,18.57,18.57,0,0,1-4.36-.49,120.53,120.53,0,0,1-12.57-3.53,106.58,106.58,0,0,0-13.93-3c-1.55-.25-3.2-.49-4.74-.61a7.07,7.07,0,0,1,1.06,1.46,5.76,5.76,0,0,1,.68,1.82v.73l-.2.25s0,.12-.19.12-.39.12-.58.12h-1.16l-3.1-.37c-2.9-.48-5.7-.85-8.51-1.09s-5.61-.37-8.41-.49a19.09,19.09,0,0,0-2.62,0,1.73,1.73,0,0,0-.77.12c-.1,0-.19.13-.19.13h0v.12a15.32,15.32,0,0,1-.68,3h.48a9,9,0,0,1,1.74-.36,19.87,19.87,0,0,1,10.74,2.43,12.93,12.93,0,0,1,4.26,3.41,4.29,4.29,0,0,1,1,2.19,4,4,0,0,1,.1,2.43,1.29,1.29,0,0,1-.48,1,3.93,3.93,0,0,1-1,1,6.66,6.66,0,0,1-2.8,1,40.17,40.17,0,0,1-8.52.37c-3.19,0-6.28-.25-9.38-.12a17.66,17.66,0,0,0-6.48,1.09c-8.71,4.14-17.13,3-25.83,8.28a26.58,26.58,0,0,1-4.36,2.06c-4.54,3.29-9.09,6.7-13.63,10,.09.13.09.37.19.49a3.4,3.4,0,0,1,0,2,6.14,6.14,0,0,1-1.16,2.31,8.06,8.06,0,0,1-1.36.85,13.12,13.12,0,0,1-1.64.61c-1.16.37-2.23.61-3.39,1h-.19v.13l-.1.12s-.09.12,0,.12a1.63,1.63,0,0,0,.19.73,8.69,8.69,0,0,0,1,1.82,2.69,2.69,0,0,1,.2.86,3.17,3.17,0,0,1-.1.48.7.7,0,0,1-.19.37c0,.12-.2.24-.39.24a.74.74,0,0,1-.58.25,7.6,7.6,0,0,1-1.64.12c-1.94-.12-4.36,1-6.49,1.94a70.59,70.59,0,0,0-8.51,5.12,68.36,68.36,0,0,0-8.32,6.57,26.48,26.48,0,0,0-3.09,3.16,19,19,0,0,0-1.94,2.92c0,.12-.19.25-.19.37-.2,0-.29.24-.39.24a11.44,11.44,0,0,0-1.06,1,28.79,28.79,0,0,0-2.33,1.71,7.43,7.43,0,0,0-.87.73c0,.12-.19.24-.29.36v.37h0c.2,0,.29.12.39,0a3.91,3.91,0,0,0,1.64-.12c3.68-.85,7.45-3.29,11.13-6.09a30.83,30.83,0,0,0,5.61-5.11,27.43,27.43,0,0,0,4-5.36,1.28,1.28,0,0,1,.58-.85,6.27,6.27,0,0,1,.87-.85,10.14,10.14,0,0,1,2.41-1,61.27,61.27,0,0,1,6.49-1.58,32.36,32.36,0,0,0,7.06-2.44,11.49,11.49,0,0,0,3-2.19,9.63,9.63,0,0,0,2.42-3c.19-.24.38-.49.58-.73s.67-.37.77-.49a4.44,4.44,0,0,1,2-.61,13.18,13.18,0,0,1,4.36.37,6.54,6.54,0,0,1,1.64.61,1.24,1.24,0,0,0,.58.48c0,.13.19.25.19.49s0,.12.1.24l-.19.25a.41.41,0,0,0-.1.24c-.19.12-.19.25-.29.25a5.14,5.14,0,0,1-2.13,1,10.62,10.62,0,0,0-3.58,1.58c-.19,0-.29.12-.48.37a2.17,2.17,0,0,1-.19.36,2.84,2.84,0,0,0-.1.85c.29,1.95,1.06,3.29,1.06,5.48v1.34c.1.12.1.24.2.36h0c0,.12.09,0,.09,0h.1a.64.64,0,0,0,.19-.36c.29-.25.49-.61.78-.85a11,11,0,0,1,1.84-2.68A8.41,8.41,0,0,1,576.7,129a8.12,8.12,0,0,1,4.84,0,11.93,11.93,0,0,1,3.58,1.95,7,7,0,0,0,3.48,1.21,3.93,3.93,0,0,0,1.93-.61,12.11,12.11,0,0,0,2.52-1.82c0-.12.19-.12.19-.25a.63.63,0,0,1,.39-.12c.29-.12.48,0,.87,0a2.75,2.75,0,0,1,1.55.73,3.77,3.77,0,0,1,1.06,1.22,2.45,2.45,0,0,0,.2.61c-.1.12-.1.12-.1.24a.43.43,0,0,0-.1.25,1.92,1.92,0,0,1-.58.48c-.29.12-.67.37-1,.49a17.14,17.14,0,0,1-3,1.46c-1.16.61-2.33,1.1-3.49,1.58l4.45-.36c.39,0,1.26,0,1.45.36.1,0,0,.12-.09.24a.4.4,0,0,1-.29.13c-.2.12-.29.24-.49.24a.88.88,0,0,1-.58.24,5.59,5.59,0,0,0-.77.37c-.87.24-1.65.48-2.32.61-2.32.73-4.74,1.21-7.16,1.82-3.39,1-6.58,2.07-9.87,3.29v.12s-.09.12-.19.12l-.1.12h.1a9.86,9.86,0,0,1-.1,2.92v.13h0c.1-.13.1-.13.1,0h0a1.32,1.32,0,0,0,.39-.37c.48-.37,1-.73,1.54-1.1a24.51,24.51,0,0,1,10.65-2.79,8.25,8.25,0,0,1,4.73,1,3.2,3.2,0,0,1,1.55,1.22,4.49,4.49,0,0,1,.68,2.07,5.91,5.91,0,0,1-.29,1.21c-.29.37-.39.85-.87,1.22a12,12,0,0,1-2.52,2.19,42.66,42.66,0,0,1-8.32,4.38c-3,1.46-6.09,2.8-9.09,4.26a30.2,30.2,0,0,0-6.29,3.53c-8,6.94-16.25,8.76-24.18,15.7a34.27,34.27,0,0,1-5.9,4.26c-1.65,1-3.19,1.95-4.65,2.92-5.32,3-10.54,5.84-15.86,8.52-15.29,7.79-30.57,14.6-45.76,21-4.93,1.83-18.57,17.53-37.92,16.06-26.12-1.82-22.64-5.23-19.54,43.82a191.13,191.13,0,0,0,3.68,25.55c1.64,8.16,0,27.87-6.2,27.63-3.38-.13-5.12-3.05-3.87-26.78.49-8.76,1.16-17.76,1.84-26.28.39-4.75.68-9.25,1-13.51,1.26-20,4.35-22.88-10.84-18.38-6,1.83-10.83,1.34-12.09,5.24a27.83,27.83,0,0,0-.29,8.76c1.74,12.78-3.87,18.25-3.38,3.89a31.42,31.42,0,0,1,1.25-7.06c2.81-9.85,3.2-6.45-6.87-7.06-10.83-.48-21.57,1.59-20.79,16.43.48,7.55,2.9,14.36,2,23.25-1,9.61-4,16.55-4.84,1.34-.19-3.53,1.36-14.24,1.94-23.85,1-16.8-1.16-12.18-12.48-11.08-15,1.46-11.71,3.28-12.29,23.61-.58,23.12.68,46.61-1.84,68-1.64,13.63-1.64,20.81-9.48,23.85-6,2.31-6.67-10.83-.58-28.23,4.26-12.3,19.45-84.7,5.61-86.17-11.9-1.33-14.12-13.14-14.8,8.77-.19,6.93.58,22.15-1.16,28.84-.77,2.92-1.93,4.38-2.9,4.38-3,0-2.9-6.94-1.26-14.36,1.36-6.2,4.06-12.66,4.16-17.28.1-18.62-2.61-17.65-8.51-14.6-4.74,2.43-10.55-.74-16.74-1-7-.36-10.25-4.74-8.12,5.48,6.57,24-16.16,19-10.84,1.34,3.39-12.29,14.51-10.35-1.55-14.24-10.64-2.56-22.34-5.48-27.47,2.8-5.71,9.37-.58,45.51-1,58.41-.48,16.92,3,30.79-5.22,29.21-6.68-1.46-4.45-13.63-.77-29.45,3.57-15.09,2.51-38,3-53.43.29-12.53-13.15-17.16-21.09-16.3-7.15.61-8.12-20.69-32.21-11.69a25.36,25.36,0,0,0-2.9,1.46c-.1,0-.19.13-.29.25a5.91,5.91,0,0,0-.78.48,1.42,1.42,0,0,1-.77.13,3.34,3.34,0,0,1-1.06-.25,10.45,10.45,0,0,1-1.26-.73,33.2,33.2,0,0,1-4-3,10.9,10.9,0,0,0-4.54-2.07,12.13,12.13,0,0,0-3.68.37,34.22,34.22,0,0,1-3.68.73,8.91,8.91,0,0,1-4.45-1,32.76,32.76,0,0,0-5.7-2.8,12.86,12.86,0,0,1-4.84-3.4,38.78,38.78,0,0,1-5.22-6,18.05,18.05,0,0,1-1.84-3.28,12,12,0,0,1-1.07-2.92,4.29,4.29,0,0,1,.29-2.31,3.11,3.11,0,0,1,2-1.22,3.14,3.14,0,0,1,1.75.36,19,19,0,0,1,2.22,1.1c1.45.85,2.81,1.7,4.35,2.55h.1c.1.13.1.13.1,0h.09c.1,0,.1-.12.1-.12a2,2,0,0,0-.1-1.09c-.29-1-.58-1.95-.87-3.05a5.32,5.32,0,0,1,0-1.21c0-.25,0-.37.1-.49s.19-.12.29-.24h.39a5.66,5.66,0,0,1,.77.36,13,13,0,0,1,2.23,1.83,25.36,25.36,0,0,0,8.32,4.5,113.45,113.45,0,0,0,11.61,3.16,60.05,60.05,0,0,0,11.31,1.1,22.53,22.53,0,0,0,4.26-.61,6.11,6.11,0,0,0,2.9-1.34c.1,0,.29-.12.39-.12H185l3.29.37h1.16c.19,0,.29,0,.38-.13v-.24h0c-5-1-10.06-2.19-15.18-3.41-3.39-1-6.87-1.82-10.35-2.8a11.42,11.42,0,0,0-5.23,1.95,1.19,1.19,0,0,1-.87.37,3.88,3.88,0,0,1-1.26-.13,18.5,18.5,0,0,1-3.29-1.21c-2.7-1.59-5.51-3.53-8.32-5.11a74.31,74.31,0,0,0-6.57-3.78c-1.75-.6-3.58-1.21-5.52-1.94h-1.06a6.11,6.11,0,0,0-3.58.85c-.1.24-.39.36-.78.24a3.51,3.51,0,0,1-1.06-.12,10.82,10.82,0,0,1-2.42-1.58,23.16,23.16,0,0,1-4.55-4.26q-31.33-12.42-62.49-27.38c-7.54-3.65-15.09-6.57-22.73-10.47a49.52,49.52,0,0,1-6-3.53,51.36,51.36,0,0,1-4.74-3.65A12.89,12.89,0,0,1,21,133.65a3.85,3.85,0,0,1,0-3.28h.78a5.18,5.18,0,0,1,1.93.48c2.13.61,4.36,1.46,6.48,2.19,6.39,2.19,12.87,4.51,19.26,6.94,9,3,18.09,6.21,27,9-15.38-6.81-30.57-12.16-46.15-21.29-4.35-2.68-8.41-3.89-12.67-6a9.67,9.67,0,0,1-2.13-1.22,9.36,9.36,0,0,1-1.84-1.83,8.71,8.71,0,0,1-1.06-2.43,18,18,0,0,1-1-3.53,2.34,2.34,0,0,1,.19-1,.67.67,0,0,1,.68-.37,5,5,0,0,1,2.9.49,68.54,68.54,0,0,1,8.42,3.65c2.13,1,4.06,2.19,6.09,2.92h.29v-.12h0l-.09-.12c-.1,0-.2-.12-.29-.25-1.16-1-2.23-1.7-3.29-2.55-.77-.61-1.55-1.22-2.23-1.83a4.08,4.08,0,0,1-.67-.73,2.32,2.32,0,0,1-.29-.61.77.77,0,0,1,.19-.73c.39-.12.77-.12,1.06-.24a20.38,20.38,0,0,1,6.49,1c6.28,1.46,12.67,3.41,19.15,5.6a2.85,2.85,0,0,0-.58-.61,6.13,6.13,0,0,0-3-2.67,2.79,2.79,0,0,0-2.42.12c-.77,0-1.45.36-2.32.36a4.54,4.54,0,0,1-3-1.58,26,26,0,0,0-4-3.65,14.15,14.15,0,0,1-3.2-4.26,42.26,42.26,0,0,1-3.58-7.42,21.85,21.85,0,0,1-1.35-4,13.87,13.87,0,0,1-.77-3.41,5.55,5.55,0,0,1,.19-2.55,1.53,1.53,0,0,1,1.26-1.22c.38,0,.67.24,1.16.61A15.91,15.91,0,0,1,30.22,89c1,1.09,1.84,2.31,2.81,3.29h.1c.09.12.09.12.09,0h.1v-.13a4.9,4.9,0,0,0,0-1.21,20.65,20.65,0,0,1-.58-3.53A8.74,8.74,0,0,1,32.55,86c0-.25,0-.37.09-.49s.1-.24.2-.12c.09-.12.19,0,.29,0a2.21,2.21,0,0,1,.48.36A17.25,17.25,0,0,1,35.26,88a18.92,18.92,0,0,0,5.51,5.72,40.87,40.87,0,0,0,7.74,4.62A24.53,24.53,0,0,0,56,100.19a5.49,5.49,0,0,0,2.8-.25,3.43,3.43,0,0,0,1.84-1.46.26.26,0,0,0,.19-.12h.3c.29,0,.58.12.87.12a16.66,16.66,0,0,0,2.12.61,2.18,2.18,0,0,0,.87.12h.2v-.36c0-.12,0-.25-.1-.25a3.19,3.19,0,0,0-.29-.61c-.39-.6-1-1.21-1.35-1.7a20.4,20.4,0,0,0-9.87-6.08,14.21,14.21,0,0,0-5-.37,6.92,6.92,0,0,0-3.68,2,.67.67,0,0,1-.58.49,3.09,3.09,0,0,1-.87-.25,12.2,12.2,0,0,1-2-1.7c-1.94-2.07-3.68-4.38-5.61-6.57a59.84,59.84,0,0,0-6.1-6.33,8,8,0,0,0-2.8-1.34,2.58,2.58,0,0,0-2.23.73,1.16,1.16,0,0,1-.58.24,5.66,5.66,0,0,0-.77-.36,7,7,0,0,1-1.55-2A41.19,41.19,0,0,1,18,68.18,16.53,16.53,0,0,1,16.88,65a10.82,10.82,0,0,1-.39-1.34,3.4,3.4,0,0,1-.19-1v-.36c0-.12,0-.24.09-.24s.1-.13.1-.25a.28.28,0,0,0,.19.12,8,8,0,0,1,1.84,1.71,14.08,14.08,0,0,0,3.09,3,.51.51,0,0,0,.39.12c.1-.12.2-.12.2-.24a1.65,1.65,0,0,0,.29-1c0-2.92-.58-6-.39-8.76a12.61,12.61,0,0,0,.1-1.94v-.61c0-.13-.1-.13-.1-.13l-.1-.12h-.29c-.1.12-.29.25-.48.49a3.53,3.53,0,0,1-1.74.73c-1.07.12-1.94-.36-2.9-1.58a24.7,24.7,0,0,1-4-6.7c-.87-2.43-1.84-5-2.61-7.66a54,54,0,0,0-2.62-6.58,16.61,16.61,0,0,0-1.74-2.18,4,4,0,0,0-2-1.1.82.82,0,0,1-.29-.24A.94.94,0,0,1,3,29a10.63,10.63,0,0,1-.77-1.21A32.43,32.43,0,0,1,1.2,24.37,15.26,15.26,0,0,1,.33,21a6,6,0,0,1-.19-1.09.51.51,0,0,1,.1-.37c0-.12.09-.12.19-.12a.66.66,0,0,1,.48.24l.87.73A17,17,0,0,1,4.3,22.91c2.32,2.31,4.55,4.75,7,7.18,2.23,2.19,4.36,4.5,6.58,6.69A14.45,14.45,0,0,0,20,38.61a.79.79,0,0,0,.58.36h.19v-.12c0-1.58.1-2.68.1-4.14h0v-.12c-.1-.12-.19,0-.29-.12a3.08,3.08,0,0,1-1.35-.73c-3.1-2.43-6.29-7.06-8.81-11.44a50.23,50.23,0,0,1-4-8.52A20.77,20.77,0,0,1,5.36,9.52a14.8,14.8,0,0,1-.48-3.89,1.61,1.61,0,0,1,.39-1.22c.09-.36.29-.61.58-.61.58-.24,1.35.25,2.22.73,2.23,1.22,4.55,3.53,6.87,5.84s5,5,7.45,7.43C24,19.26,26,21.21,27.52,21.57,34.29,23.15,41,32.16,47.64,33c2.32.24,4.06,1.34,6.58,3.41a46.42,46.42,0,0,0,6.67,5.47c1.94,1.34,4.16,1.83,6.19,2.8,1.16.61,2.42,1.22,3.58,2a5,5,0,0,1,1.26.85,1.4,1.4,0,0,0,.39.37c0,.12,0,.12.09.24v.12a.66.66,0,0,1,0,.61c0,.12-.09.24-.09.37-.29.12-.49.36-.78.36a8.61,8.61,0,0,1-2.71-.85c-2.8-1.34-5.7-3.29-8.61-5a71.44,71.44,0,0,0-9.48-5.11,10.61,10.61,0,0,0-3.28-1,3.6,3.6,0,0,0-1.17.13,1.38,1.38,0,0,0-.67.73v.12a.45.45,0,0,0-.1.24.11.11,0,0,1,.1.12v.12c.29.37.58.61.77.86a35.53,35.53,0,0,0,3,2.55C52.57,44.81,55.67,46.88,59,49S65.53,53.21,69,55.53c1.16.85,2.32,1.58,3.48,2.43a9.71,9.71,0,0,1,1.84,1.46,1.73,1.73,0,0,0,.67.85c.3,0,.39,0,.49-.12.48-.12.68-.73,1-1.1a.7.7,0,0,0,.19-.36,1,1,0,0,1,.58-.12,9,9,0,0,1,1.65.24,32.77,32.77,0,0,1,5.31,1.82c3,1.34,6.29,2.8,9.29,4.26-3.29-2.31-6.38-5.23-9.57-7.91a30.11,30.11,0,0,1-3.78-4,28.18,28.18,0,0,1-3-4.63A5.09,5.09,0,0,1,76.47,47q-.15-.36,0-.36h.09l.1-.12a.82.82,0,0,1,.29.24c.19.12.29.12.39.24a3.73,3.73,0,0,1,1,.86c1.07,1,1.94,2.07,3,3.16,6,6.21,12.48,8.28,18.38,15.09H99a1.51,1.51,0,0,1-.1,1.34c-.1,0-.1.12-.19.12a10.8,10.8,0,0,0,1.06.49c1.94,1,3.77,2.07,5.61,3-.68-1.1-1.64-2.31-2.42-3.53-.19-.36-.48-.85-.77-1.34a4.4,4.4,0,0,1-.2-1c.1-.12.1-.24.2-.24h.29a1,1,0,0,1,.58.12,5.16,5.16,0,0,0,.68.24c.67.49,1.45,1,2.22,1.46-.58-.85-1.26-1.82-1.93-2.68-.49-.73-1-1.46-1.45-2.06h0c-.1,0-.1,0-.29-.13s-.1,0-.3-.12a2.07,2.07,0,0,1-.58-.49,16.36,16.36,0,0,1-3-4.13l-.29-.37a2.49,2.49,0,0,0-.49-.48,22.58,22.58,0,0,0-4.45-3.29,47.78,47.78,0,0,0-6.19-3,5.59,5.59,0,0,1-.77-.37,3.55,3.55,0,0,1-.87-.61,14.66,14.66,0,0,1-1.55-1.58,19.41,19.41,0,0,1-2.61-3.77,9.5,9.5,0,0,1-1.45-3.29,1.59,1.59,0,0,1,0-1c0-.12.09-.12.19-.12-2.52-2.56-5-5.36-7.64-7.91A44.66,44.66,0,0,1,69,27.05a32,32,0,0,1-2.42-4.87A3.56,3.56,0,0,1,66,20.6v-.37h.1c.09,0,.19.12.19.12s.19.13.29.13a.35.35,0,0,0,.19.36,7.06,7.06,0,0,1,.87,1c.78,1.1,1.74,2.32,2.62,3.41C75.5,32,81.5,35,86.72,42.26h-.58v.49c1.74,1,3.29,2.19,5,3.28,1.55,1,3,1.95,4.55,2.92C94,46.4,92.43,43.6,90.78,40.68a43.36,43.36,0,0,0-5.51-8.16,25.37,25.37,0,0,0-4.06-3.89A41.29,41.29,0,0,0,75.69,25a1.59,1.59,0,0,1-.68-.49,3.16,3.16,0,0,1-.77-.61,17.45,17.45,0,0,1-1.35-1.58,19.11,19.11,0,0,1-2.23-4,10.87,10.87,0,0,1-1.16-3.4c-.1-.37-.1-.73.1-.86s.19-.24.29-.24.29.12.39.12a4.88,4.88,0,0,1,1.16.85,15,15,0,0,1,2.12,1.59c2.13,1.7,4.16,3.4,6.2,5.11,5.7,4.87,11.31,9.73,17,14.24a7.93,7.93,0,0,0,.78.6,3.25,3.25,0,0,1,.19-2.19,1.44,1.44,0,0,1,1.16-.73,3.61,3.61,0,0,1,1.93.25c-1.54-1.58-3-3-4.35-4.63a62.38,62.38,0,0,1-8.13-10.71,15.39,15.39,0,0,1-2-4.5,4,4,0,0,1,0-3.16A1.46,1.46,0,0,1,87.5,10a10.81,10.81,0,0,1,1.74.36c1.83.86,3.87,2,5.9,3.17ZM538.59,178.19a30.59,30.59,0,0,0,2.9-2.31l1.45-1.46a9.19,9.19,0,0,0,.77-1.34c.1,0,.1-.12.1-.12v-.12h-.1s0-.12-.09,0a3,3,0,0,0-.87.24,24.29,24.29,0,0,0-3.58,1.58c-3,1.59-6.1,3.29-9.19,5,1.25-.36,2.41-.61,3.67-1a14.74,14.74,0,0,1,4.94-.49ZM525.72,155.8c8.12-5.84-.87-1.09-8.42,3,1.26-.12,2.62,0,3.87-.12,1.45-1,3.1-1.94,4.55-2.92Zm-10.35,6.57c.19-2.07-7.93.25-10.55,4.63-1.25,1.94,10.36-4.51,10.55-4.63Zm70.72-35.78a.72.72,0,0,0-.2.37c2.81.73,5.61-1.7,8.51-1.34.49,0,1.07.12,1.55.12a3.5,3.5,0,0,1,.49-.12h.09l.1-.12h.1c0-.12,0-.12-.1-.12.1-.12,0-.12,0-.25a1.06,1.06,0,0,0-.48-.48,10.69,10.69,0,0,0-1.94-1,3.37,3.37,0,0,0-1.93-.36c-1.45.36-2.91.36-4.45.73-.29.12-.68.24-1,.36a2.62,2.62,0,0,0-.77.49.65.65,0,0,0-.2.37.74.74,0,0,1-.09.36c.09.24.19.61.29,1Zm-8.91-.24a5.73,5.73,0,0,0,2,.37h.67c.1,0,.1,0,.2-.13v-.24c0-.12-.1-.12-.2-.12a1.78,1.78,0,0,0-.67-.61,3,3,0,0,0-1.74-.73.74.74,0,0,0-.49.12v.12l-.1.13a.84.84,0,0,0,.1.48c0,.25,0,.49.19.61Zm-476.34.85a1.6,1.6,0,0,1,1.07-.48,5,5,0,0,1,3.29.12,15.12,15.12,0,0,1,3.29,1.09,5.55,5.55,0,0,1,1.06-3.16,10.73,10.73,0,0,0,.87-1.22v-.49c-.1,0-.1,0-.1-.12s-.19-.12-.19-.12-.1-.12-.19-.12a.32.32,0,0,0-.29-.12.71.71,0,0,0-.68-.25,15.45,15.45,0,0,0-2-.48,44.34,44.34,0,0,1-6.48-1.95,15.13,15.13,0,0,0-2-.85c-3.29.24-6.48,1.21-9.87,1.58.19.12.29.24.48.37a35.71,35.71,0,0,1,5.81,3.89.79.79,0,0,1,.58.37c1.84.6,3.67,1.33,5.41,1.94ZM87,120.87a.8.8,0,0,0-.48.13H82.85c1.65.6,3.29,1.09,5.13,1.7a7.29,7.29,0,0,1-.68-1.1c-.1-.24-.19-.48-.29-.73Zm-24.18-3.16A13,13,0,0,0,57,119.78c-.1,0-.19.12-.29.12,14.42,4.75,28.93,10.22,43.44,15.58a91.75,91.75,0,0,1-8.61-8.16c-.39-.48-.78-.85-1.26-1.46-2.9-.85-5.8-1.7-8.9-2.43-6.09-1.58-12.38-3.53-18.57-5.72Zm-2-31.64c-9.19-2.92,6.58,6.21,12.48,9.25.1,0,.2.12.29,0s.1,0,.1-.12c-.19-.25-.29-.49-.48-.73-.87-1.34-1.74-2.68-2.52-3.9-3.29-1.46-6.48-2.92-9.87-4.5ZM95.23,97.39A47.3,47.3,0,0,0,87,94.71c2.42,1.83,4.84,3.53,7.16,5.11,2.52.61,4.74,1,5.32.49.1,0-1.26-.85-2.22-1.46A8.1,8.1,0,0,1,95.91,98c-.1,0-.19-.12-.48-.36l-.1-.12a.11.11,0,0,1-.1-.12ZM8.65,44c.1-.12.2-.24.29-.24C6.81,38.73,4.2,37.51,2,33A17.19,17.19,0,0,0,.62,30.45c0-.12-.19-.36-.29-.6-.09,0-.09,0-.19-.13V29.6c-.1,0-.1,0-.1.12v.13c-.09,0,0,.24,0,.24.1.49.29,1.09.39,1.58a35.8,35.8,0,0,0,1.45,4.14,13.32,13.32,0,0,0,1.55,3.28C4.59,41,5.85,43,7.1,44.81c.29.37.68.73.88,1a.77.77,0,0,0,.58.36c.09,0,.19-.12.19-.12,0-.24.1-.36.1-.49A5,5,0,0,0,8.65,44ZM16,56.74a28.16,28.16,0,0,0-1.74-3.41,3.26,3.26,0,0,0-.48-.73l-.1-.12h-.19v.24a1.07,1.07,0,0,0,.19.49,11,11,0,0,0,.49,1.71,16.41,16.41,0,0,0,1.45,3.4c0,.12.19.25.29.37H16s0-.12.1-.12V58a7.18,7.18,0,0,0-.19-1.22ZM563.84,50.9c-.2.24-.39.36-.58.61h.09c0,.12.1.12.2.12h.19c1.64-1.1,3.19-2.19,4.74-3.29a21.34,21.34,0,0,0-2.71,1.34c-.58.37-1.26.73-1.74,1.1-.19,0-.19.12-.19.12Zm120.63,7.91a.9.9,0,0,0-.49.12c3.49,3.77,8.42,5,12.1,8.76.58.73,1.16,1.34,1.74,2a7.27,7.27,0,0,0,.58.49c.1.12.19.12.29.24h.19a.11.11,0,0,0,.1.12c.1,0,.1,0,.19-.12v-.12a7.93,7.93,0,0,0-.29-1,8.58,8.58,0,0,0-1.55-2.79,10.07,10.07,0,0,0-2.22-2.56c-2.13-1.58-4.16-3.29-6.48-4.75l-1.55-1a6.75,6.75,0,0,0-1.36-.49h-.67a.3.3,0,0,0-.29.13c-.29.24-.29.48-.29,1Zm-13-10.1a30.7,30.7,0,0,0,2.91,2.43c.29.24.48.37.77.61.1,0,.19.12.29.12s.2.12.29,0h0a.5.5,0,0,0,.1-.36,2.63,2.63,0,0,0-.58-1.1A10.41,10.41,0,0,0,673,47.86a1.1,1.1,0,0,1-.58-.25H672c-.19.13-.29.25-.29.37a.88.88,0,0,0-.2.73ZM579.7,96.66c-4.16,2.8-8.22,5.47-12.48,8.27,3.39-1.34,6.77-2.55,10.16-4,1.26-.61,2.61-1.22,4-2,.59-.49,1.07-.85,1.75-1.34.09,0,.19-.12.29-.12a4,4,0,0,0,1.06-1.22s0-.12.1-.12,0-.12-.1-.12-.1,0,0-.12h-.1a2.89,2.89,0,0,0-1.06,0A18.21,18.21,0,0,0,579.7,96.66Z" style="fill:url(#GradientFill_1)"/><path d="M408.47,315c-.38-.12-.38.12-.77.12-.39,1.34-1.94,7.06.77,7.18,3.1.12.87-5.72,0-7.3Zm-159.13-79.1c-.39,1.58,2.8.85,7,1.7,3.58.73,8,3.29,9.48,3.65,6.48,2.07-2-3.53-4.16-3.28-2.12-.85-9.57-3.65-12.28-2.07Zm109.6,14.23c.58.25,1.36-.48,1.94-.85l.58-.36a22.78,22.78,0,0,1,2.32-1.46c.19,0,.19.12.29,0,.29-.12.87-.12,1.36-.25a4.25,4.25,0,0,0,.87-.36c.09,0,.19.12.38.12a16.42,16.42,0,0,1,3.48-.12c.1-.85-.58-.85-1-1s-.87.24-1.36.24a5.58,5.58,0,0,0-1.93.24c-.2,0-.29-.12-.39-.12s-.29.24-.29.37c-.29,0-.48-.13-.68-.13a21.48,21.48,0,0,0-3.28,1.22,4.16,4.16,0,0,0-1.36.85c-.1,0-.58.49-.58.49a3.68,3.68,0,0,0-.39,1.09Zm-2.71,28.48c-.19,0-.67,6.21-.29,6.82,1-.37.58-6.09.29-6.82ZM306,248.53c-3.77-2.92-7.65,3.9-7.94-.36a5.17,5.17,0,0,1,3.2-1.58h0c1.06,0,3.87-.86,4.45.85.09,0,.77,1.09.29,1.09Zm3.48,1.34c-.39-2.19,4.55-3.28,4.93-.85-1.06-1-4.45-.73-4.93.85Zm-4.26,30.3c0,3.05-.48,16.19-1.84,11.2-1-4.14,2.13-17.52,1.84-11.2ZM228,310.23c0,1.58-.68,5.48-1.65,2.8-.58-1.46,1.65-5,1.65-2.8Zm-.78,11.2c0-2.07,0-3.77-1-5-1.26-1.58-1.36,16.92,1.26,13.51,1.25-1.58-.3-6.57-.3-8.52Zm19.64-84.94c-.87-1.1-6,1.09-5.8,1.7,1.35.12,5,0,5.8-1.7Zm21.29,32c-3.39.25-2.13-9.37-1.36-11.68.1-.49,2.71-5.11,2.32-4-1.35,4.14-2.22,4.87-.09,10.59,1.16,2.92.67,4.87-.87,5.11Zm-51.37-37.24c-6.77,0-10.74,3.05-14.42-6.57,1.94,1.1,2.71,3.41,5.13,3.41,1.06,0,2.13-1.22,3.19.12.68.85-.67.85-.67,1.7,0,.49,4.06.25,4.54.25.87,0,2.71,1.09,2.23,1.09ZM317.93,352.7c-.49.74-.2,1.22.77,1.47.29-.61,0-1.1-.77-1.47Zm0,4.27c-.39,0-.39.24-.78.24-.39,1.34-1.93,7.06.78,7.18C321,364.51,318.8,358.55,317.93,357Z" style="fill:#e2f2f0"/><g style="mix-blend-mode:overlay"><path d="M432.65,83.8a8,8,0,0,1,1.83.71,1.76,1.76,0,0,1,.88.64c1.39-1,2.72-2,4-3.1.76-.55,1.46-1.11,2.21-1.67a38.66,38.66,0,0,0-4.86,1.2c-.69.31-1.51.63-2.27,1a15.94,15.94,0,0,1-1.83,1.19Zm-302-63.71c36.25,43,189,55.29,276.89,10.41l3.59-2.38a15.63,15.63,0,0,1,2.78-1.43c.51-.24,1.2-.48,1.58-.24s.25.79,0,1.43l-.12.16c-.13.16-.26.24-.32.39-.38.32-.76.64-1.07,1-1.39,1.19-2.66,2.3-4,3.41-1.14,1-2.21,1.91-3.35,2.86,4.23-3.09,8.4-6.19,12.69-9.21,4.87-3.5,9.6-7.47,14.53-10.88,1.32-.88,2.59-1.75,3.85-2.47,1.07-.55,2.08-1.11,3.09-1.51a2.56,2.56,0,0,1,1.83-.23c.38.16.26.79.07,1.35a.41.41,0,0,0-.13.24,2.11,2.11,0,0,0-.38.31,8.44,8.44,0,0,1-1.2,1c-1.39,1.19-2.78,2.22-4.17,3.41-4,3.42-8.2,6.75-12.18,10.17-4.17,3.49-8.27,6.91-12.5,10.48a1,1,0,0,1,.31-.15c.38-.16.76-.4,1.14-.56,7.76-6.12,15.47-12.31,23.36-17.56,2.84-1.74,5.37-3.89,8.15-5.87a6.32,6.32,0,0,1,1.32-.88,3.22,3.22,0,0,1,1.14-.39,1.93,1.93,0,0,1,.88.23l.76,1a2.12,2.12,0,0,1-.13.55,2,2,0,0,1-.37.64,21.48,21.48,0,0,1-1.9,1.75,55.56,55.56,0,0,1-5.37,4.13c-.63.47-1.38.95-2.08,1.43a.35.35,0,0,1,.06.23c.13.08.19.16.19.24s.13-.08.19-.08a11.54,11.54,0,0,1,1.52-.71c.12,0,.25-.08.44-.08,0,.08.13,0,.19.08s0,.32-.19.48-.38.55-.51.79c-1.26,1.43-2.65,2.7-3.91,3.89a3.24,3.24,0,0,0-.88.8c-1.14,1.27-2.28,2.54-3.48,3.81-2.14,2.3-4.29,4.69-6.5,7.07,3.91-3.34,7.39-7.15,11.55-9.93a27.5,27.5,0,0,0,3.22-2.86,4,4,0,0,1,.51-.48,1,1,0,0,1,.51.08.67.67,0,0,1,.37.48,4,4,0,0,1,.57,1.11c.07.08.07.24.07.48a1.72,1.72,0,0,1-.19.47,2.6,2.6,0,0,1-.57,1,12,12,0,0,1-2,2.14c-.44.48-1.08.88-1.45,1.35a.07.07,0,0,1-.07.08s.07.08,0,.08h.13c.31-.08.57-.24,1-.32s.44-.24.63-.16c0-.08.06,0,.19,0s.06.08.06.16h0c3.41-2.06,6.75-4.13,10-6.43,1.07-.64,2.15-1.43,3.28-2.14.13-.08.13-.16.19-.24a6.6,6.6,0,0,1,.95-.64,2.2,2.2,0,0,1,.82-.48,4.6,4.6,0,0,1,1-.23,3.43,3.43,0,0,1,1.26-.08,34.26,34.26,0,0,1,4,.08,12.67,12.67,0,0,0,4.49-.16,27,27,0,0,0,4-1.35,34.28,34.28,0,0,1,4.11-1.27,12.77,12.77,0,0,1,4.61-.16c2,.24,3.91.71,6,.79a11.9,11.9,0,0,1,4.73,1.51,25.31,25.31,0,0,1,4.74,3.26A8.07,8.07,0,0,1,496.67,27a2.43,2.43,0,0,1,.51,1.5,1.44,1.44,0,0,1-.76,1.12,8,8,0,0,1-2.46.47,4,4,0,0,1-1.64-.23c-.76-.16-1.52-.4-2.34-.56a36.81,36.81,0,0,0-4.17-.95c0-.08-.12,0-.19,0h-.06a.2.2,0,0,0-.12.07l-.07.08a1.32,1.32,0,0,0-.06.48,12.74,12.74,0,0,1,.31,1.59,2,2,0,0,1-.06.64c-.06.15-.12.15-.25.23s-.19.16-.25.16a1.15,1.15,0,0,1-.57.08,1.26,1.26,0,0,1-.63-.16,14.77,14.77,0,0,1-2.15-.63,21,21,0,0,0-8-1A73.69,73.69,0,0,0,462,31.77,79,79,0,0,0,450.64,36c-.44.16-.82.4-1.2.56a3.62,3.62,0,0,0,.89.08,2.09,2.09,0,0,0,1,.16,17.1,17.1,0,0,1,3.34-1.2h0a.61.61,0,0,0,.38-.31c.76-.48,1.58-1,2.34-1.35A5.47,5.47,0,0,1,460,33.2a16.11,16.11,0,0,0,3.41.08,4.18,4.18,0,0,1,2.14.48,7.17,7.17,0,0,0,1.27-.8c.38-.16.63-.32,1-.47a6.12,6.12,0,0,1,1.26-.32,21.31,21.31,0,0,1,3.16-.16,46,46,0,0,1,7.95,1A79.76,79.76,0,0,0,489,34.39a36.6,36.6,0,0,0,4.11.32,15,15,0,0,0,3.79-.32,3.51,3.51,0,0,1,.94-.08,5,5,0,0,1,1.08.16,8.9,8.9,0,0,1,2.4.88,24.83,24.83,0,0,1,4.48,2.86c.51.55.95,1,1.39,1.58a2.67,2.67,0,0,1,.32.56c.06.16.12.32.06.4s-.06.08-.13.16-.06.08-.12.08H507a3.43,3.43,0,0,0-.38-.08,18.1,18.1,0,0,1-2.52-.88,21,21,0,0,0-4.36-1.35,1.87,1.87,0,0,0-.63-.08c-.07,0-.25.08-.38.08a1.42,1.42,0,0,0-.51.4c-.5,1.19-.12,2.46-.88,3.73a1.85,1.85,0,0,0-.44.8.32.32,0,0,0-.07.24.07.07,0,0,1,.07.08H497V44h.57l.88-.23a17.32,17.32,0,0,1,3-.32,10.52,10.52,0,0,1,4,.79A12.33,12.33,0,0,1,510,47.42a23.38,23.38,0,0,1,2.46,3.42,12.68,12.68,0,0,0,2.46,3,6.66,6.66,0,0,0,2,1.27,16.28,16.28,0,0,0,2.91,1,.41.41,0,0,0,.31.16,1.06,1.06,0,0,0,.32.23A1.43,1.43,0,0,1,521,57a5.39,5.39,0,0,1,.95,1.51,3,3,0,0,1,.25,1.35.53.53,0,0,1-.12.4c-.06,0-.13.08-.19.08h-.25a6.31,6.31,0,0,0-.64-.24c-.31-.16-.63-.32-.88-.48a28.83,28.83,0,0,1-3-1.59c-2.78-1.43-5.56-2.86-8.34-4.13-2.77-1-5.49-2-8.33-2.86-.88-.23-1.89-.47-2.72-.71a2.66,2.66,0,0,1-.82-.16c-.12,0-.19,0-.25.08h-.12a5.34,5.34,0,0,1-.83,1.75h0v.08h.07a.67.67,0,0,1,.38.08,8.14,8.14,0,0,1,1.89.23,28.56,28.56,0,0,1,10.36,4.69,12.8,12.8,0,0,1,3.72,3.58,5.73,5.73,0,0,1,.7,1.74,2.76,2.76,0,0,1-.32,1.43,1.88,1.88,0,0,1-.63.4,3.43,3.43,0,0,1-.95.16A11.84,11.84,0,0,1,508,64.1a82,82,0,0,1-8.21-2.3,69.39,69.39,0,0,0-9.09-2c-1-.16-2.08-.32-3.1-.4a4.49,4.49,0,0,1,.7,1,3.61,3.61,0,0,1,.44,1.19V62l-.12.15s0,.08-.13.08-.25.08-.38.08h-.76l-2-.24c-1.89-.31-3.72-.55-5.55-.71s-3.67-.24-5.5-.32a12.06,12.06,0,0,0-1.7,0,1.14,1.14,0,0,0-.51.08c-.06,0-.12.08-.12.08h0v.08a10.5,10.5,0,0,1-.45,2h.32a5.79,5.79,0,0,1,1.14-.24,12.89,12.89,0,0,1,7,1.59,8.33,8.33,0,0,1,2.78,2.22,2.78,2.78,0,0,1,.63,1.43,2.75,2.75,0,0,1,.07,1.59.83.83,0,0,1-.32.63,2.74,2.74,0,0,1-.63.64,4.43,4.43,0,0,1-1.83.64,26.73,26.73,0,0,1-5.56.23c-2.08,0-4.1-.15-6.12-.07a11.2,11.2,0,0,0-4.23.71c-5.69,2.7-11.18,2-16.86,5.4a17.66,17.66,0,0,1-2.84,1.35c-3,2.15-5.94,4.37-8.91,6.51.07.08.07.24.13.32a2.11,2.11,0,0,1,0,1.27,3.91,3.91,0,0,1-.76,1.51,5.61,5.61,0,0,1-.88.56,8.15,8.15,0,0,1-1.08.4c-.75.23-1.45.39-2.21.63h-.12v.08l-.07.08s-.06.08,0,.08a1.05,1.05,0,0,0,.13.48,6,6,0,0,0,.63,1.19,1.63,1.63,0,0,1,.13.55,2.32,2.32,0,0,1-.06.32.48.48,0,0,1-.13.24c0,.08-.13.16-.25.16a.48.48,0,0,1-.38.16,4.91,4.91,0,0,1-1.08.08A10.06,10.06,0,0,0,426,95.32a45.79,45.79,0,0,0-5.55,3.33,47.64,47.64,0,0,0-5.43,4.29,18,18,0,0,0-2,2.07,12.67,12.67,0,0,0-1.27,1.91c0,.07-.12.16-.12.23s-.19.16-.26.16a7.23,7.23,0,0,0-.69.64,18.28,18.28,0,0,0-1.52,1.11,4,4,0,0,0-.56.48c0,.08-.13.16-.19.24V110h0c.12,0,.19.08.25,0a2.51,2.51,0,0,0,1.07-.08c2.4-.55,4.86-2.14,7.26-4a20.29,20.29,0,0,0,3.67-3.33,18.73,18.73,0,0,0,2.59-3.5.78.78,0,0,1,.37-.55,3.73,3.73,0,0,1,.57-.56,6.72,6.72,0,0,1,1.58-.64,43.38,43.38,0,0,1,4.23-1,20.85,20.85,0,0,0,4.61-1.59,7.3,7.3,0,0,0,2-1.43,6.26,6.26,0,0,0,1.58-2l.38-.48c.19-.16.44-.24.5-.32a2.84,2.84,0,0,1,1.33-.4,8.85,8.85,0,0,1,2.84.24,4.39,4.39,0,0,1,1.07.4.84.84,0,0,0,.38.32c0,.08.13.16.13.32s0,.08.06.16l-.13.15a.29.29,0,0,0-.06.16c-.12.08-.12.16-.19.16a3.2,3.2,0,0,1-1.39.64,6.88,6.88,0,0,0-2.33,1c-.13,0-.19.08-.32.24a1,1,0,0,1-.13.24,2,2,0,0,0-.06.55,20.45,20.45,0,0,1,.7,3.58v.87c.06.08.06.16.12.24h0c0,.08.07,0,.07,0h.06a.45.45,0,0,0,.12-.24c.19-.16.32-.4.51-.56a7.13,7.13,0,0,1,1.2-1.74,5.57,5.57,0,0,1,2-1.43,5.3,5.3,0,0,1,3.16,0,7.84,7.84,0,0,1,2.33,1.27,4.49,4.49,0,0,0,2.28.79,2.68,2.68,0,0,0,1.26-.39,8.11,8.11,0,0,0,1.64-1.2c0-.08.13-.08.13-.15a.39.39,0,0,1,.25-.08c.19-.09.32,0,.57,0a1.75,1.75,0,0,1,1,.47,2.5,2.5,0,0,1,.69.8,1.73,1.73,0,0,0,.13.39c-.06.08-.06.08-.06.16a.27.27,0,0,0-.07.16,1.22,1.22,0,0,1-.38.32c-.18.08-.44.24-.63.32a11.65,11.65,0,0,1-1.95,1c-.76.4-1.52.72-2.28,1l2.91-.23c.25,0,.82,0,.94.23.07,0,0,.08-.06.16a.26.26,0,0,1-.19.08c-.12.08-.19.16-.31.16a.63.63,0,0,1-.38.16,4.13,4.13,0,0,0-.51.24c-.57.16-1.07.31-1.51.39-1.52.48-3.1.8-4.68,1.2-2.21.63-4.29,1.35-6.44,2.14v.08s-.06.08-.12.08l-.07.08h.07a6.38,6.38,0,0,1-.07,1.9v.09h0c.07-.09.07-.09.07,0h0a1.1,1.1,0,0,0,.25-.24c.32-.24.63-.48,1-.72a16,16,0,0,1,6.95-1.83,5.51,5.51,0,0,1,3.09.64,2.15,2.15,0,0,1,1,.79,3,3,0,0,1,.44,1.36,3.36,3.36,0,0,1-.19.79c-.19.24-.25.56-.57.79a7.43,7.43,0,0,1-1.64,1.43,27.53,27.53,0,0,1-5.43,2.86c-2,1-4,1.83-5.93,2.78a19.86,19.86,0,0,0-4.11,2.31c-5.24,4.52-10.6,5.72-15.78,10.24a21.9,21.9,0,0,1-3.86,2.78c-1.07.64-2.08,1.28-3,1.91-3.47,2-6.88,3.81-10.35,5.56-10,5.08-19.95,9.53-29.87,13.74-3.22,1.19-12.12,11.44-24.75,10.49-17.05-1.19-14.78-3.42-12.76,28.59a126.1,126.1,0,0,0,2.4,16.68c1.08,5.33,0,18.19-4,18-2.21-.08-3.34-2-2.52-17.48.31-5.72.75-11.6,1.2-17.16.25-3.09.44-6,.63-8.81.82-13,2.84-14.94-7.07-12-3.92,1.19-7.08.87-7.9,3.42a18.42,18.42,0,0,0-.19,5.72c1.14,8.34-2.52,11.91-2.21,2.54a21.81,21.81,0,0,1,.82-4.61c1.84-6.43,2.09-4.21-4.48-4.61-7.07-.31-14.08,1-13.58,10.73.32,4.92,1.9,9.37,1.33,15.17-.63,6.28-2.59,10.8-3.16.87-.12-2.3.89-9.29,1.27-15.56.63-11-.76-7.95-8.15-7.23-9.79.95-7.64,2.14-8,15.41-.38,15.09.44,30.42-1.2,44.4-1.07,8.9-1.07,13.58-6.19,15.57-3.91,1.51-4.35-7.07-.37-18.43,2.77-8,12.69-55.29,3.66-56.24-7.77-.87-9.22-8.58-9.66,5.72-.13,4.53.38,14.46-.76,18.82-.51,1.91-1.26,2.86-1.9,2.86-1.95,0-1.89-4.52-.82-9.37.89-4.05,2.66-8.26,2.72-11.28.06-12.15-1.71-11.52-5.56-9.53-3.09,1.59-6.88-.48-10.92-.64-4.55-.23-6.69-3.09-5.3,3.58,4.29,15.65-10.55,12.39-7.08.87,2.21-8,9.47-6.75-1-9.29-6.94-1.67-14.58-3.57-17.93,1.83-3.73,6.11-.38,29.7-.63,38.13-.32,11,2,20.09-3.41,19.06-4.36-.95-2.91-8.9-.5-19.22,2.33-9.85,1.64-24.79,2-34.88.19-8.18-8.59-11.2-13.77-10.64-4.67.4-5.3-13.5-21-7.63a14.56,14.56,0,0,0-1.89,1c-.07,0-.13.08-.19.16a3.25,3.25,0,0,0-.51.31.9.9,0,0,1-.51.09,2.18,2.18,0,0,1-.69-.17,6.84,6.84,0,0,1-.82-.47,21,21,0,0,1-2.59-2,7.16,7.16,0,0,0-3-1.35,8,8,0,0,0-2.4.24,21.22,21.22,0,0,1-2.4.48,5.74,5.74,0,0,1-2.9-.64A21.87,21.87,0,0,0,162.2,152a8.37,8.37,0,0,1-3.15-2.22,25.27,25.27,0,0,1-3.41-3.89,11.59,11.59,0,0,1-1.2-2.15,7.69,7.69,0,0,1-.7-1.9,2.79,2.79,0,0,1,.19-1.51,2.06,2.06,0,0,1,1.33-.8,2.08,2.08,0,0,1,1.14.24,13,13,0,0,1,1.45.72c.94.55,1.83,1.11,2.84,1.67h.06c.06.07.06.07.06,0h.07c.06,0,.06-.08.06-.08a1.48,1.48,0,0,0-.06-.72c-.19-.64-.38-1.27-.57-2a3.49,3.49,0,0,1,0-.8c0-.16,0-.24.06-.32s.13-.08.19-.16h.25a4.13,4.13,0,0,1,.51.24,8.61,8.61,0,0,1,1.45,1.19,16.63,16.63,0,0,0,5.43,2.94,75,75,0,0,0,7.58,2.07,40.33,40.33,0,0,0,7.39.71,15.78,15.78,0,0,0,2.78-.39,4,4,0,0,0,1.89-.88c.06,0,.19-.08.25-.08h1.2l2.15.24h.76c.12,0,.19,0,.25-.08v-.16h0c-3.28-.63-6.57-1.43-9.91-2.22-2.21-.64-4.49-1.19-6.76-1.83a7.44,7.44,0,0,0-3.41,1.27.78.78,0,0,1-.57.24,2.66,2.66,0,0,1-.82-.08,11.94,11.94,0,0,1-2.15-.79c-1.76-1-3.6-2.31-5.43-3.34a48.37,48.37,0,0,0-4.29-2.46c-1.14-.4-2.34-.8-3.6-1.27h-.69a4,4,0,0,0-2.34.55c-.06.16-.25.24-.51.16a2.25,2.25,0,0,1-.69-.08,7.14,7.14,0,0,1-1.58-1,15.09,15.09,0,0,1-3-2.78q-20.46-8.1-40.79-17.87c-4.92-2.39-9.85-4.29-14.84-6.83a32.8,32.8,0,0,1-3.91-2.31,34.44,34.44,0,0,1-3.1-2.38,8.79,8.79,0,0,1-1.83-2.3,2.56,2.56,0,0,1,0-2.15h.51a3.35,3.35,0,0,1,1.26.32c1.39.4,2.84,1,4.23,1.43,4.17,1.43,8.4,2.94,12.57,4.53,5.87,2,11.81,4.05,17.62,5.87-10-4.44-20-7.94-30.12-13.9-2.85-1.74-5.5-2.54-8.28-3.89a6.49,6.49,0,0,1-1.38-.79,5.87,5.87,0,0,1-1.2-1.19,5.63,5.63,0,0,1-.7-1.59,11.79,11.79,0,0,1-.63-2.31,1.35,1.35,0,0,1,.13-.63.42.42,0,0,1,.44-.24,3.25,3.25,0,0,1,1.89.32,44.27,44.27,0,0,1,5.49,2.38c1.39.64,2.66,1.43,4,1.91h.19v-.08h0l-.06-.08c-.06,0-.13-.08-.19-.16-.76-.64-1.45-1.11-2.15-1.67-.5-.4-1-.79-1.45-1.19a2.74,2.74,0,0,1-.44-.48,1.88,1.88,0,0,1-.19-.4.5.5,0,0,1,.13-.47c.25-.08.5-.08.69-.16a13.45,13.45,0,0,1,4.23.63c4.11,1,8.27,2.23,12.5,3.66a1.82,1.82,0,0,0-.37-.4A4.13,4.13,0,0,0,99,86a1.9,1.9,0,0,0-1.58.08c-.51,0-1,.24-1.52.24a3,3,0,0,1-2-1,16.75,16.75,0,0,0-2.59-2.38,9.31,9.31,0,0,1-2.09-2.78,27.74,27.74,0,0,1-2.33-4.85,14.22,14.22,0,0,1-.89-2.62,9.35,9.35,0,0,1-.5-2.22,3.56,3.56,0,0,1,.12-1.67,1,1,0,0,1,.83-.8c.25,0,.44.16.75.4a11.09,11.09,0,0,1,1,1c.63.72,1.2,1.51,1.83,2.15h.07c.06.08.06.08.06,0h.06v-.08a3.06,3.06,0,0,0,0-.8,13.63,13.63,0,0,1-.38-2.3,6.16,6.16,0,0,1-.12-1c0-.16,0-.24.06-.32s.06-.16.13-.08c.06-.08.12,0,.19,0a1.39,1.39,0,0,1,.31.24,10.53,10.53,0,0,1,1.08,1.51,12.16,12.16,0,0,0,3.6,3.73,25.84,25.84,0,0,0,5,3,15.84,15.84,0,0,0,4.86,1.19,3.59,3.59,0,0,0,1.83-.16,2.27,2.27,0,0,0,1.2-.95.2.2,0,0,0,.13-.08h.19c.19,0,.37.08.56.08a12.11,12.11,0,0,0,1.39.4,1.41,1.41,0,0,0,.57.08h.13v-.24c0-.08,0-.16-.07-.16a1.93,1.93,0,0,0-.18-.4c-.26-.39-.64-.79-.89-1.11a13.32,13.32,0,0,0-6.44-4,9.22,9.22,0,0,0-3.28-.24,4.59,4.59,0,0,0-2.4,1.27.44.44,0,0,1-.38.32,1.91,1.91,0,0,1-.57-.16,9.2,9.2,0,0,1-1.33-1.11c-1.26-1.35-2.4-2.86-3.66-4.29a38.51,38.51,0,0,0-4-4.13,5.26,5.26,0,0,0-1.83-.88,1.66,1.66,0,0,0-1.45.48.78.78,0,0,1-.38.16,3.93,3.93,0,0,0-.5-.24,4.4,4.4,0,0,1-1-1.27,25.38,25.38,0,0,1-2.4-4.29,10.86,10.86,0,0,1-.76-2.07,5.68,5.68,0,0,1-.25-.87,2.08,2.08,0,0,1-.13-.63V52c0-.08,0-.16.06-.16s.07-.08.07-.16a.17.17,0,0,0,.12.08,5.06,5.06,0,0,1,1.2,1.11,9.12,9.12,0,0,0,2,2,.34.34,0,0,0,.26.08c.06-.08.12-.08.12-.16a1,1,0,0,0,.19-.64c0-1.9-.38-3.89-.25-5.72A8.93,8.93,0,0,0,83,47.1v-.4a.06.06,0,0,0-.06-.07l-.06-.08h-.19a4.1,4.1,0,0,0-.32.31,2.34,2.34,0,0,1-1.14.48,2.07,2.07,0,0,1-1.89-1,16.22,16.22,0,0,1-2.59-4.37c-.57-1.59-1.2-3.26-1.7-5a34.67,34.67,0,0,0-1.71-4.3,11,11,0,0,0-1.14-1.42,2.57,2.57,0,0,0-1.32-.72,7021280620633.31,7021280620633.31,0,0,1-.38-.32,6.78,6.78,0,0,1-.51-.79,22.44,22.44,0,0,1-.69-2.23,9.55,9.55,0,0,1-.57-2.22,3.88,3.88,0,0,1-.12-.71.36.36,0,0,1,.06-.24c0-.08.06-.08.12-.08a.43.43,0,0,1,.32.16l.57.47a11.29,11.29,0,0,1,1.64,1.67c1.52,1.51,3,3.1,4.55,4.69,1.45,1.43,2.84,2.94,4.29,4.37a9.8,9.8,0,0,0,1.39,1.19.51.51,0,0,0,.38.24h.12v-.08c0-1,.07-1.75.07-2.7h0v-.08c-.07-.08-.13,0-.19-.08a2,2,0,0,1-.89-.48c-2-1.59-4.1-4.61-5.74-7.47a31.77,31.77,0,0,1-2.59-5.56A12.71,12.71,0,0,1,72,17.47a9.15,9.15,0,0,1-.32-2.54,1,1,0,0,1,.25-.79c.07-.24.19-.4.38-.4.38-.16.88.16,1.45.48A22.66,22.66,0,0,1,78.29,18c1.57,1.59,3.28,3.26,4.86,4.84,1.07,1,2.33,2.23,3.35,2.47,4.42,1,8.77,6.91,13.13,7.46,1.51.16,2.65.88,4.29,2.23a30.5,30.5,0,0,0,4.36,3.57,26.54,26.54,0,0,0,4,1.83c.76.4,1.58.79,2.34,1.27a3.31,3.31,0,0,1,.82.56.71.71,0,0,0,.25.23c0,.08,0,.08.06.16v.08a.41.41,0,0,1,0,.4c0,.08-.06.16-.06.24-.19.08-.32.24-.5.24a5.48,5.48,0,0,1-1.77-.56c-1.83-.87-3.73-2.14-5.62-3.26a47.43,47.43,0,0,0-6.19-3.33,6.76,6.76,0,0,0-2.15-.64,2.49,2.49,0,0,0-.76.08,1,1,0,0,0-.44.48v.08a.32.32,0,0,0-.06.16s.06,0,.06.08v.08c.19.23.38.39.51.55a22.38,22.38,0,0,0,2,1.67c2.09,1.51,4.11,2.86,6.26,4.21s4.29,2.78,6.56,4.29c.76.56,1.52,1,2.28,1.59a6.55,6.55,0,0,1,1.2.95,1.14,1.14,0,0,0,.44.56c.19,0,.25,0,.31-.08.32-.08.45-.48.64-.72a.45.45,0,0,0,.12-.24.74.74,0,0,1,.38-.07,5.58,5.58,0,0,1,1.08.15,22.05,22.05,0,0,1,3.47,1.2c2,.87,4.1,1.82,6.06,2.77-2.15-1.5-4.17-3.41-6.25-5.16a19.65,19.65,0,0,1-2.46-2.62,17.66,17.66,0,0,1-2-3,3.23,3.23,0,0,1-.44-.87q-.11-.24,0-.24h.06l.06-.08a.45.45,0,0,1,.19.16c.13.08.19.08.25.16a2.42,2.42,0,0,1,.64.55c.69.64,1.26,1.36,1.95,2.07,3.92,4,8.15,5.4,12,9.85h-.44a1,1,0,0,1-.07.87c-.06,0-.06.08-.12.08.19.08.44.24.69.32,1.27.64,2.47,1.35,3.66,2-.44-.72-1.07-1.51-1.57-2.31-.13-.24-.32-.55-.51-.87a3.29,3.29,0,0,1-.13-.64c.07-.08.07-.16.13-.16h.19a.66.66,0,0,1,.38.08,3.54,3.54,0,0,0,.44.16c.44.32.95.64,1.45,1-.38-.56-.82-1.2-1.26-1.75s-.63-1-.95-1.35h0c-.06,0-.06,0-.18-.08s-.07,0-.2-.08a1.32,1.32,0,0,1-.37-.32,10.62,10.62,0,0,1-2-2.7l-.19-.24a1.19,1.19,0,0,0-.32-.31,14.59,14.59,0,0,0-2.9-2.15,31.34,31.34,0,0,0-4-2,4.13,4.13,0,0,1-.51-.24,2.24,2.24,0,0,1-.56-.4,10,10,0,0,1-1-1,12.56,12.56,0,0,1-1.71-2.47,6.28,6.28,0,0,1-1-2.14,1.15,1.15,0,0,1,0-.64c0-.07.07-.07.13-.07-1.64-1.67-3.28-3.5-5-5.17a29.63,29.63,0,0,1-2.15-2.86A19.17,19.17,0,0,1,112,25.73a2.24,2.24,0,0,1-.38-1v-.24h.06c.06,0,.13.08.13.08s.12.08.19.08a.24.24,0,0,0,.12.24,4.6,4.6,0,0,1,.57.64c.5.71,1.14,1.51,1.71,2.22,3.4,4.45,7.32,6.35,10.73,11.12h-.38v.32c1.14.63,2.15,1.43,3.28,2.14l3,1.91c-1.14-1.67-2.15-3.5-3.22-5.4a27.88,27.88,0,0,0-3.6-5.32,16.59,16.59,0,0,0-2.65-2.55,27.53,27.53,0,0,0-3.6-2.38,1,1,0,0,1-.44-.32,2.17,2.17,0,0,1-.51-.39,13.51,13.51,0,0,1-.88-1,12.07,12.07,0,0,1-1.45-2.62A6.8,6.8,0,0,1,113.9,21c-.06-.24-.06-.48.06-.56s.13-.16.19-.16.19.08.26.08a2.94,2.94,0,0,1,.75.56,9.44,9.44,0,0,1,1.39,1c1.39,1.11,2.72,2.23,4,3.34,3.73,3.17,7.39,6.35,11.12,9.29.19.16.38.32.5.4a2.18,2.18,0,0,1,.13-1.43.92.92,0,0,1,.75-.48,2.41,2.41,0,0,1,1.27.16c-1-1-2-2-2.84-3a40.54,40.54,0,0,1-5.31-7,9.89,9.89,0,0,1-1.32-2.94,2.52,2.52,0,0,1,0-2.06,1,1,0,0,1,.76-.4,7,7,0,0,1,1.13.24,43.44,43.44,0,0,1,3.85,2.06ZM420.08,127.57a21.33,21.33,0,0,0,1.9-1.51l.94-1a6.65,6.65,0,0,0,.51-.88c.06,0,.06-.08.06-.08v-.08h-.06s0-.08-.06,0a1.91,1.91,0,0,0-.57.16,15.89,15.89,0,0,0-2.34,1c-2,1-4,2.15-6,3.26.82-.24,1.58-.4,2.4-.63a9.38,9.38,0,0,1,3.22-.32ZM411.68,113c5.31-3.81-.57-.71-5.49,2,.82-.08,1.7,0,2.53-.08.94-.64,2-1.27,3-1.91Zm-6.75,4.29c.12-1.35-5.18.16-6.89,3-.82,1.27,6.76-2.94,6.89-3Zm46.16-23.35a.41.41,0,0,0-.13.24c1.83.47,3.66-1.11,5.56-.88.31,0,.69.08,1,.08a2.24,2.24,0,0,1,.31-.08h.06l.07-.08H458c0-.08,0-.08-.06-.08s0-.07,0-.15a.71.71,0,0,0-.32-.32,6.78,6.78,0,0,0-1.26-.64,2.17,2.17,0,0,0-1.26-.24c-.95.24-1.9.24-2.91.48l-.63.24a1.62,1.62,0,0,0-.5.32A.41.41,0,0,0,451,93c0,.07,0,.07-.06.23s.12.4.19.64Zm-5.82-.16a3.65,3.65,0,0,0,1.33.24H447c.07,0,.07,0,.13-.08v-.16c0-.08-.06-.08-.13-.08a1.13,1.13,0,0,0-.44-.4,2,2,0,0,0-1.13-.47.47.47,0,0,0-.32.08v.08l-.06.08a.59.59,0,0,0,.06.31c0,.16,0,.32.12.4Zm-310.91.56a1,1,0,0,1,.69-.32,3.32,3.32,0,0,1,2.15.08,10,10,0,0,1,2.15.71A3.64,3.64,0,0,1,140,92.7a6.92,6.92,0,0,0,.57-.8v-.31c-.06,0-.06,0-.06-.08a.2.2,0,0,1-.13-.08c0-.08-.06-.08-.13-.08a.2.2,0,0,0-.19-.08c-.12-.16-.25-.16-.44-.16a9.44,9.44,0,0,0-1.33-.32,28.68,28.68,0,0,1-4.23-1.27,9.32,9.32,0,0,0-1.32-.56c-2.15.16-4.23.8-6.44,1,.13.08.19.15.31.23a22.89,22.89,0,0,1,3.79,2.55.5.5,0,0,1,.38.24c1.2.39,2.4.87,3.54,1.27Zm-9-4.14a.57.57,0,0,0-.32.08h-2.4c1.08.4,2.15.72,3.35,1.12a4.64,4.64,0,0,1-.44-.72c-.07-.16-.13-.32-.19-.48Zm-15.79-2.06a8.63,8.63,0,0,0-3.79,1.35c-.06,0-.12.08-.19.08,9.41,3.1,18.88,6.67,28.36,10.17a60.28,60.28,0,0,1-5.62-5.32c-.26-.32-.51-.56-.83-1-1.89-.55-3.78-1.11-5.8-1.59-4-1-8.09-2.3-12.13-3.73Zm-1.32-20.65c-6-1.91,4.29,4,8.14,6,.06,0,.13.08.19,0s.06,0,.06-.08-.19-.31-.31-.47c-.57-.88-1.14-1.75-1.64-2.54-2.15-1-4.23-1.91-6.44-2.94Zm22.48,7.39a30.36,30.36,0,0,0-5.37-1.75c1.58,1.19,3.15,2.3,4.67,3.33,1.64.4,3.09.64,3.47.32a15.38,15.38,0,0,0-1.45-1,5.38,5.38,0,0,1-.88-.56c-.07,0-.13-.08-.32-.24l-.06-.08a.06.06,0,0,1-.06-.07ZM74.18,40c.07-.08.13-.16.19-.16-1.39-3.25-3.09-4-4.55-7a10.26,10.26,0,0,0-.88-1.66c0-.08-.13-.24-.19-.4-.06,0-.06,0-.12-.08v-.08c-.07,0-.07,0-.07.08v.08c-.06,0,0,.16,0,.16.07.32.19.71.25,1a24.14,24.14,0,0,0,1,2.7,8.75,8.75,0,0,0,1,2.15c.76,1.27,1.58,2.54,2.4,3.73.19.24.44.48.57.63a.51.51,0,0,0,.38.24c.06,0,.13-.08.13-.08a2.11,2.11,0,0,1,.06-.31,3.32,3.32,0,0,0-.13-1ZM79,48.29a16.69,16.69,0,0,0-1.14-2.22,2.16,2.16,0,0,0-.31-.48l-.06-.08h-.13v.16a.62.62,0,0,0,.13.32,6.58,6.58,0,0,0,.31,1.11,10.77,10.77,0,0,0,1,2.23c0,.08.12.16.19.23H79s0-.07.06-.07v-.4a4.57,4.57,0,0,0-.12-.8Zm357.58-3.81c-.12.16-.25.24-.38.4h.07c0,.08.06.08.12.08h.13c1.07-.72,2.08-1.43,3.09-2.15a13.26,13.26,0,0,0-1.77.88c-.37.24-.82.47-1.13.71-.13,0-.13.08-.13.08Zm78.74,5.16a.54.54,0,0,0-.31.08c2.27,2.47,5.49,3.26,7.89,5.72A16.15,16.15,0,0,0,524,56.71c.19.16.25.24.37.32s.13.08.19.16h.13c0,.08.06.08.06.08s.07,0,.13-.08v-.08a6.48,6.48,0,0,0-.19-.64,5.66,5.66,0,0,0-1-1.82A6.61,6.61,0,0,0,522.25,53c-1.39-1-2.72-2.14-4.23-3.1l-1-.63a4,4,0,0,0-.89-.32h-.44a.2.2,0,0,0-.19.08c-.19.16-.19.32-.19.63Zm-8.46-6.59a20.38,20.38,0,0,0,1.89,1.59c.19.16.32.24.51.4.06,0,.13.08.19.08a.11.11,0,0,0,.19,0h0a.36.36,0,0,0,.06-.24,1.63,1.63,0,0,0-.38-.72,6.78,6.78,0,0,0-1.51-1.67.76.76,0,0,1-.38-.15h-.25c-.13.08-.19.15-.19.23a.59.59,0,0,0-.13.48Zm-59.92,31.3c-2.72,1.82-5.37,3.57-8.15,5.4,2.21-.87,4.42-1.67,6.63-2.62.82-.4,1.71-.8,2.59-1.27.38-.32.7-.56,1.14-.88.06,0,.12-.08.19-.08a2.48,2.48,0,0,0,.69-.79s0-.08.07-.08,0-.08-.07-.08-.06,0,0-.08H450a2,2,0,0,0-.7,0A12.07,12.07,0,0,0,446.92,74.35Z" style="fill:#fff"/><path d="M335.15,216.85c-.25-.08-.25.08-.5.08-.25.87-1.26,4.61.5,4.69,2,.08.57-3.74,0-4.77ZM231.28,165.22c-.25,1,1.83.56,4.55,1.11,2.33.48,5.24,2.15,6.19,2.38,4.23,1.36-1.33-2.3-2.72-2.14-1.39-.55-6.25-2.38-8-1.35Zm71.54,9.29c.38.16.89-.31,1.27-.55l.38-.24a13.93,13.93,0,0,1,1.51-.95c.13,0,.13.07.19,0s.57-.08.88-.16a2.51,2.51,0,0,0,.57-.24c.07,0,.13.08.26.08a10.47,10.47,0,0,1,2.27-.08c.06-.56-.38-.56-.63-.64s-.57.16-.89.16a3.58,3.58,0,0,0-1.26.16c-.13,0-.19-.08-.25-.08s-.19.16-.19.24c-.19,0-.32-.08-.44-.08a13.25,13.25,0,0,0-2.15.8,2.41,2.41,0,0,0-.88.55c-.07,0-.38.32-.38.32a2.38,2.38,0,0,0-.26.71Zm-1.76,18.59a16.27,16.27,0,0,0-.19,4.45c.63-.24.38-4,.19-4.45Zm-32.77-19.62c-2.47-1.91-5,2.54-5.18-.24a3.36,3.36,0,0,1,2.08-1h0c.7,0,2.53-.56,2.91.56.06,0,.5.71.19.71Zm2.27.87c-.26-1.42,3-2.14,3.22-.55-.7-.64-2.91-.48-3.22.55Zm-2.78,19.78c0,2-.32,10.57-1.2,7.31-.63-2.7,1.39-11.44,1.2-7.31Zm-50.45,19.62c0,1-.44,3.58-1.08,1.83-.37-1,1.08-3.26,1.08-1.83Zm-.51,7.31c0-1.35,0-2.46-.63-3.26-.82-1-.88,11,.82,8.82.82-1-.19-4.29-.19-5.56Zm12.82-55.44c-.57-.72-3.91.71-3.79,1.11.89.08,3.29,0,3.79-1.11Zm13.89,20.89c-2.21.16-1.39-6.12-.88-7.63.06-.32,1.77-3.33,1.51-2.62-.88,2.7-1.45,3.18-.06,6.91.76,1.91.44,3.18-.57,3.34ZM210,162.2c-4.42,0-7,2-9.41-4.29,1.27.72,1.77,2.23,3.35,2.23.7,0,1.39-.8,2.09.08.44.55-.45.55-.45,1.11,0,.31,2.66.16,3,.16.57,0,1.77.71,1.45.71Zm66.05,79.28c-.31.47-.12.79.51,1,.19-.4,0-.72-.51-1Zm0,2.78c-.25,0-.25.16-.5.16-.26.87-1.27,4.6.5,4.68C278.07,249.18,276.62,245.29,276.05,244.26Z" style="fill:#fff"/></g></g></g></g></svg>