<svg xmlns="http://www.w3.org/2000/svg" viewBox="0 0 20.85 3.56"><title>shape_08</title><g id="Layer_2" data-name="Layer 2"><g id="Layer_1-2" data-name="Layer 1"><path d="M20.6,1.7h.25a1.51,1.51,0,0,0-.47,0,.68.68,0,0,0-.27-.05H19.9l-.06,0-.05,0-.15-.05.07,0,.17,0h0c.05,0,.11,0,.1-.07h0c.08,0,.17,0,.19-.06l0-.05h0c.06,0,.12,0,.16,0a.78.78,0,0,1,.15-.1l.15-.06q0-.08.12-.12s.1,0,.13,0,0,0-.05,0l-.2,0V.83l0,0v0s.08,0,.13,0a.19.19,0,0,0-.09,0,.34.34,0,0,0-.12-.06s-.11,0-.07-.08.07,0,.15,0a.17.17,0,0,0-.12-.06.12.12,0,0,0-.1,0l0,0h-.16l-.11,0h0l.1,0c.09,0,0,0,0,0h0a.6.6,0,0,0,.16-.05.69.69,0,0,0,.24,0h-.25l0,0s.12,0,.13,0h0a1.67,1.67,0,0,0-.32,0h-.35l-.23,0h0s-.19,0-.12-.07a1.83,1.83,0,0,0-.59-.08h-.14a2.6,2.6,0,0,0-.56,0,1.18,1.18,0,0,0-.27,0,.25.25,0,0,0-.15,0h0a.58.58,0,0,0-.23,0h-.07c-.17,0-.35,0-.51,0H15.06s0,0,0,0h0V0H15a.47.47,0,0,0-.17,0h-1s0,0,0,0h-.39s0,0,0,0h0s0,0,0,0V0h-.12a4.51,4.51,0,0,0-.52,0h-.27c-.41,0-.83,0-1.24,0h-.44L11,0a.33.33,0,0,0-.17,0H10.6s-.09,0-.12,0h0a3.11,3.11,0,0,0-.53,0H7.65L7,.09H5.3a2.61,2.61,0,0,0-.4,0H4.6a.88.88,0,0,0-.28,0H4.21C4,0,3.85,0,3.66,0a1.83,1.83,0,0,0-.34,0h0c-.06,0-.11,0-.12,0s-.06.1-.15.14S3,.26,3,.3s0,0,0,0L3.16.4a.73.73,0,0,0-.29.07s-.06,0-.07,0h0a.08.08,0,0,0-.07,0c-.06,0-.16,0-.19,0H2.35a.56.56,0,0,0-.2,0,.34.34,0,0,0,.19,0l.07,0,0,.14h-.3a1.71,1.71,0,0,0-.47.09c-.11,0-.18.06-.29.08.08,0,.12,0,.18,0l0,0h0L1.46,1a.48.48,0,0,0-.24.09s-.08,0-.07,0S1,1.23,1,1.3l.13,0v0L1,1.33s0,.06,0,.09l-.11,0H.8c-.17.05-.17.06,0,.11h0v0a1.76,1.76,0,0,0-.41.06c-.07,0,0,0,0,0s-.13.05-.2.07l-.13.05H.29s0,0,0,0H0a1.57,1.57,0,0,0,.48,0h0a.45.45,0,0,0,.27.05.69.69,0,0,0,.2,0A.15.15,0,0,1,1,2l.06,0,.15,0-.08,0a.47.47,0,0,0-.17,0H1s-.1,0-.1.07h0c-.08,0-.17,0-.19,0l0,.05h0c-.06,0-.12,0-.16,0l-.14.1h0l-.16,0h0c0,.05,0,.09-.11.12s-.11,0-.13,0,0,0,0,0l.19,0v.05l0,0v0s-.08,0-.13,0a.25.25,0,0,0,.09,0,.33.33,0,0,0,.12,0S.4,2.93.37,3s-.07,0-.15,0A.16.16,0,0,0,.33,3a.13.13,0,0,0,.1,0l0,0H.56L.68,3h0l0,0H.59c-.09,0,0,0,0,.06h0a.28.28,0,0,0-.16.05,1.06,1.06,0,0,0-.24,0H.41l0,0,0,0h0s0,0,0,0-.12,0-.13,0h0a1.08,1.08,0,0,0,.31,0H1l.24,0a0,0,0,0,0,0,0h0s.19,0,.12.07A1.72,1.72,0,0,0,2,3.46h.15a2.47,2.47,0,0,0,.55,0,.8.8,0,0,0,.27,0c.06,0,.12,0,.16,0h0a.47.47,0,0,0,.24,0h.07c.16,0,.34,0,.51,0H5.8s0,0,0,0h0v0H7s0,0,0,0h.4v0h0s0,0,0,0H7.5a3.13,3.13,0,0,0,.53,0h0a.88.88,0,0,0,.23,0c.41,0,.82,0,1.23,0H9.9a.22.22,0,0,0,.08,0l-.12,0a.42.42,0,0,0,.16,0h.23s0,0,0,0h0v0a.22.22,0,0,0,.12,0h0a5,5,0,0,0,.55,0H13.2l.66,0h2.79a3.21,3.21,0,0,0,.54,0,1.94,1.94,0,0,0,.34,0c.06,0,.11,0,.13,0s.06-.1.14-.14.08-.08,0-.13h0l-.11-.09A.47.47,0,0,0,18,3.09l.07,0h0l.07,0c.07,0,.16,0,.19,0h.19l.21,0a.48.48,0,0,0-.2,0l-.07,0,0-.13s0,0,0,0h.17l.15,0a1.64,1.64,0,0,0,.47-.09,2.46,2.46,0,0,0,.29-.07c-.07,0-.12,0-.17,0l-.05,0,.09,0a.73.73,0,0,0,.23-.09h0c.05,0,.08,0,.07-.06s.16-.09.17-.16l-.12,0h0v0l.08,0s0-.06,0-.09l.12,0a.11.11,0,0,0,.08,0h0c.17,0,.17,0,0-.11V2h0a1.76,1.76,0,0,0,.41-.06c.08,0,0,0,0,0s.13-.05.2-.07l.14-.05h-.19S20.54,1.7,20.6,1.7ZM13.15,3.44ZM.49,3.25h0ZM7.7.12h0ZM17.6,3Zm-.8.42ZM3.25.57h0S3.25.58,3.25.57Zm.8-.41ZM2,3.37ZM18.84.19ZM13.1,1.59ZM7.76,2ZM4.33.46h0ZM16.52,3.1h0ZM5.91.32h0Zm.21,0h0S6.14.3,6.12.3Zm-.91,0Zm-.68,0ZM4.2.3ZM1.42,1.65Zm13.52,1.6h0Zm-.21,0h0S14.71,3.26,14.73,3.26Zm.91,0Zm.68,0h0Zm.33,0h0Zm2.79-1.35Zm.24-1h0ZM4.13.54Zm-2.48.9Zm-.46.18h0Zm0,1.06h0ZM16.73,3Zm2.47-.9ZM19.67,2h0ZM5.06.23ZM4.13.56ZM15.8,3.33h0ZM16.73,3Zm2.49-1.61h0Zm.64-1h0ZM17.38.17h0ZM16.55.11Zm0,0Zm-12,0ZM4.13.22h0Zm-2.5,2h0ZM1,3.18Zm2.48.21h0Zm.83.06Zm0,0Zm11.36,0Zm.61,0Zm.44-.06Zm2.54-1.79h0Zm.13-.25ZM14.71.11h0ZM7.51.16h0ZM5.17.19ZM3.11.7ZM1.57,2h0Zm-.12.24Zm4.7,1.2h0Zm9.41,0Zm4.38-2.23ZM11.55.09h0ZM5.29.12Zm-.38,0h0ZM1.3,1.47h0Zm-.39.88ZM9.3,3.48Zm4-.07h0s0,0,0,0S13.35,3.4,13.34,3.41Zm2.6.06h0Zm3.61-1.38Zm.81-.4h0ZM20.13.32h0ZM10.41.1h0ZM10,.11h0v0h0S10,.1,10,.11Zm-.67,0Zm-1.9,0h0Zm-.12,0ZM4.09.06ZM.5,1.88h0ZM.72,3.25h0Zm9.72.21Zm.4,0s0,0,0,0h0v0h0Zm.66,0h0Zm1.93,0h0Zm3.33,0Z" style="fill:#1973bb"/><path d="M20.07,2.27c-.1,0-.2,0-.23.1Z" style="fill:#1973bb"/><path d="M20.4,1.47l0,0s0,0,0,0l-.05,0S20.35,1.47,20.4,1.47Z" style="fill:#1973bb"/><path d="M8,3.56a.72.72,0,0,0,.21,0A.76.76,0,0,0,8,3.56Z" style="fill:#1973bb"/><path d="M7,3.56H7Z" style="fill:#1973bb"/><polygon points="20.56 0.3 20.56 0.3 20.55 0.3 20.56 0.3 20.56 0.3" style="fill:#1973bb"/><path d="M20.63.27c-.05,0-.06,0-.07,0h.1Z" style="fill:#1973bb"/><path d="M.79,1.29A.64.64,0,0,0,1,1.2Z" style="fill:#1973bb"/><path d="M.45,2.09l0,0s0,0,0,0l0,0S.5,2.1.45,2.09Z" style="fill:#1973bb"/><path d="M13.62,0H13.4V0Z" style="fill:#1973bb"/><path d="M12.84,0a.5.5,0,0,0-.21,0A1.49,1.49,0,0,0,12.84,0Z" style="fill:#1973bb"/><polygon points="0.29 3.27 0.3 3.27 0.3 3.26 0.3 3.26 0.29 3.27" style="fill:#1973bb"/><path d="M.23,3.29c.05,0,.06,0,.06,0s-.07,0-.09,0Z" style="fill:#1973bb"/></g></g></svg>